<?xml version="1.0" encoding="UTF-8"?>
<svg width="235.49999999980002mm" height="45.3999999998mm" viewBox="0.0 0.0 235.49999999980002 45.3999999998" xmlns="http://www.w3.org/2000/svg" xmlns:xlink="http://www.w3.org/1999/xlink" xmlns:ev="http://www.w3.org/2001/xml-events" version="1.1">
	<g>
		<desc>AMI, fmc.bd, 3688ca390064ffa80130f21be906cdb2</desc>
		<g>
			<desc>, fmc.cm.lineshapecomment, 3690c1260064ffa801303c1a1b1dbd99</desc>
			<g>
				<desc>null, figure.lineshape, null</desc>
				<line x1="182.89412416841458" y1="5.311529933381124" x2="182.89412416841458" y2="8.7892239466849" stroke="rgb(191,191,191)" stroke-width="0.4008869179600916" stroke-linecap="round"/>
				<line x1="182.89412416841458" y1="10.528070953336789" x2="182.89412416841458" y2="14.005764966640566" stroke="rgb(191,191,191)" stroke-width="0.4008869179600916" stroke-linecap="round"/>
				<line x1="182.89412416841458" y1="15.744611973292454" x2="182.89412416841458" y2="19.22230598659623" stroke="rgb(191,191,191)" stroke-width="0.4008869179600916" stroke-linecap="round"/>
				<line x1="182.89412416841458" y1="20.961152993248117" x2="182.89412416841458" y2="24.438847006551892" stroke="rgb(191,191,191)" stroke-width="0.4008869179600916" stroke-linecap="round"/>
				<line x1="182.89412416841458" y1="26.17769401320378" x2="182.89412416841458" y2="29.655388026507556" stroke="rgb(191,191,191)" stroke-width="0.4008869179600916" stroke-linecap="round"/>
				<line x1="182.89412416841458" y1="31.394235033159443" x2="182.89412416841458" y2="34.87192904646322" stroke="rgb(191,191,191)" stroke-width="0.4008869179600916" stroke-linecap="round"/>
				<line x1="182.89412416841458" y1="36.61077605311511" x2="182.89412416841458" y2="40.088470066418886" stroke="rgb(191,191,191)" stroke-width="0.4008869179600916" stroke-linecap="round"/>
			</g>
		</g>
		<g>
			<desc>, fmc.cm.lineshapecomment, 3690ad280064ffa80130449d7797392a</desc>
			<g>
				<desc>null, figure.lineshape, null</desc>
				<line x1="117.7499999999" y1="5.311529933381124" x2="117.7499999999" y2="8.7892239466849" stroke="rgb(191,191,191)" stroke-width="0.4008869179600916" stroke-linecap="round"/>
				<line x1="117.7499999999" y1="10.528070953336789" x2="117.7499999999" y2="14.005764966640566" stroke="rgb(191,191,191)" stroke-width="0.4008869179600916" stroke-linecap="round"/>
				<line x1="117.7499999999" y1="15.744611973292454" x2="117.7499999999" y2="19.22230598659623" stroke="rgb(191,191,191)" stroke-width="0.4008869179600916" stroke-linecap="round"/>
				<line x1="117.7499999999" y1="20.961152993248117" x2="117.7499999999" y2="24.438847006551892" stroke="rgb(191,191,191)" stroke-width="0.4008869179600916" stroke-linecap="round"/>
				<line x1="117.7499999999" y1="26.17769401320378" x2="117.7499999999" y2="29.655388026507556" stroke="rgb(191,191,191)" stroke-width="0.4008869179600916" stroke-linecap="round"/>
				<line x1="117.7499999999" y1="31.394235033159443" x2="117.7499999999" y2="34.87192904646322" stroke="rgb(191,191,191)" stroke-width="0.4008869179600916" stroke-linecap="round"/>
				<line x1="117.7499999999" y1="36.61077605311511" x2="117.7499999999" y2="40.088470066418886" stroke="rgb(191,191,191)" stroke-width="0.4008869179600916" stroke-linecap="round"/>
			</g>
		</g>
		<g>
			<desc>, fmc.cm.lineshapecomment, 3690457c0064ffa80130ddf70c1730c1</desc>
			<g>
				<desc>null, figure.lineshape, null</desc>
				<line x1="52.605875831385454" y1="5.311529933381124" x2="52.605875831385454" y2="8.7892239466849" stroke="rgb(191,191,191)" stroke-width="0.4008869179600916" stroke-linecap="round"/>
				<line x1="52.605875831385454" y1="10.528070953336789" x2="52.605875831385454" y2="14.005764966640566" stroke="rgb(191,191,191)" stroke-width="0.4008869179600916" stroke-linecap="round"/>
				<line x1="52.605875831385454" y1="15.744611973292454" x2="52.605875831385454" y2="19.22230598659623" stroke="rgb(191,191,191)" stroke-width="0.4008869179600916" stroke-linecap="round"/>
				<line x1="52.605875831385454" y1="20.961152993248117" x2="52.605875831385454" y2="24.438847006551892" stroke="rgb(191,191,191)" stroke-width="0.4008869179600916" stroke-linecap="round"/>
				<line x1="52.605875831385454" y1="26.17769401320378" x2="52.605875831385454" y2="29.655388026507556" stroke="rgb(191,191,191)" stroke-width="0.4008869179600916" stroke-linecap="round"/>
				<line x1="52.605875831385454" y1="31.394235033159443" x2="52.605875831385454" y2="34.87192904646322" stroke="rgb(191,191,191)" stroke-width="0.4008869179600916" stroke-linecap="round"/>
				<line x1="52.605875831385454" y1="36.61077605311511" x2="52.605875831385454" y2="40.088470066418886" stroke="rgb(191,191,191)" stroke-width="0.4008869179600916" stroke-linecap="round"/>
			</g>
		</g>
		<g>
			<desc>Smart Metering, fmc.bd.agent, 3688fcf50064ffa80130e21d0e1c4997</desc>
			<g>
				<desc>null, figure.plane, null</desc>
				<path d=" M 8.007206208325483,22.19889135244989 L 38.073725055332204,22.19889135244989 L 38.073725055332204,7.165631928946517 L 8.007206208325483,7.165631928946517 z" fill="rgb(255,255,255)"/>
				<line x1="8.007206208325483" y1="22.19889135244989" x2="38.073725055332204" y2="22.19889135244989" stroke="rgb(127,127,127)" stroke-width="0.25055432372505854" stroke-linecap="round"/>
				<line x1="38.073725055332204" y1="22.19889135244989" x2="38.073725055332204" y2="7.165631928946517" stroke="rgb(127,127,127)" stroke-width="0.25055432372505854" stroke-linecap="round"/>
				<line x1="38.073725055332204" y1="7.165631928946517" x2="8.007206208325485" y2="7.165631928946517" stroke="rgb(127,127,127)" stroke-width="0.25055432372505854" stroke-linecap="round"/>
				<line x1="8.007206208325483" y1="7.165631928946517" x2="8.007206208325483" y2="22.19889135244989" stroke="rgb(127,127,127)" stroke-width="0.25055432372505854" stroke-linecap="round"/>
				<g>
					<desc>null, supplement, null</desc>
					<circle cx="7.255543237150316" cy="22.95055432362506" r="0.25055432372505854" fill="rgb(63,63,63)"/>
					<circle cx="6.5038802659751624" cy="23.702217294800214" r="0.25055432372505854" fill="rgb(63,63,63)"/>
					<circle cx="5.752217294799994" cy="24.453880265975382" r="0.25055432372505854" fill="rgb(63,63,63)"/>
				</g>
				<g>
					<desc>null, supplement, null</desc>
					<circle cx="37.32206208415704" cy="22.95055432362506" r="0.25055432372505854" fill="rgb(63,63,63)"/>
					<circle cx="36.570399112981875" cy="23.702217294800214" r="0.25055432372505854" fill="rgb(63,63,63)"/>
					<circle cx="35.818736141806696" cy="24.453880265975382" r="0.25055432372505854" fill="rgb(63,63,63)"/>
				</g>
				<g>
					<desc>null, supplement, null</desc>
					<circle cx="37.32206208415704" cy="7.9172949001217" r="0.25055432372505854" fill="rgb(63,63,63)"/>
					<circle cx="36.570399112981875" cy="8.668957871296868" r="0.25055432372505854" fill="rgb(63,63,63)"/>
					<circle cx="35.818736141806696" cy="9.420620842472037" r="0.25055432372505854" fill="rgb(63,63,63)"/>
				</g>
				<g>
					<desc>null, supplement, null</desc>
					<circle cx="7.255543237150316" cy="7.9172949001217" r="0.25055432372505854" fill="rgb(63,63,63)"/>
					<circle cx="6.5038802659751624" cy="8.668957871296868" r="0.25055432372505854" fill="rgb(63,63,63)"/>
					<circle cx="5.752217294799994" cy="9.420620842472037" r="0.25055432372505854" fill="rgb(63,63,63)"/>
				</g>
			</g>
			<g>
				<desc>null, figure.plane, null</desc>
				<path d=" M 5.0005543236248124,25.20554323715056 L 35.06707317063153,25.20554323715056 L 35.06707317063153,10.172283813647189 L 5.0005543236248124,10.172283813647189 z" fill="rgb(255,255,255)"/>
				<line x1="5.0005543236248124" y1="25.20554323715056" x2="35.06707317063153" y2="25.20554323715056" stroke="rgb(0,0,0)" stroke-width="0.5011086474501171" stroke-linecap="round"/>
				<line x1="35.06707317063153" y1="25.20554323715056" x2="35.06707317063153" y2="10.172283813647189" stroke="rgb(0,0,0)" stroke-width="0.5011086474501171" stroke-linecap="round"/>
				<line x1="35.06707317063153" y1="10.172283813647189" x2="5.000554323624812" y2="10.172283813647189" stroke="rgb(0,0,0)" stroke-width="0.5011086474501171" stroke-linecap="round"/>
				<line x1="5.0005543236248124" y1="10.172283813647189" x2="5.0005543236248124" y2="25.205543237150557" stroke="rgb(0,0,0)" stroke-width="0.5011086474501171" stroke-linecap="round"/>
				<g>
					<desc>null, supplement, null</desc>
					<text x="20.033813747128185" y="16.786917959988678" textLength="10.823946784922407" lengthAdjust="spacingAndGlyphs" text-anchor="middle" font-family="Arial" font-size="4.028913525498896">Smart</text>
					<text x="20.033813747128185" y="21.29689578703968" textLength="15.574456762749463" lengthAdjust="spacingAndGlyphs" text-anchor="middle" font-family="Arial" font-size="4.028913525498896">Metering</text>
				</g>
			</g>
		</g>
		<g>
			<desc>Event Aggregation, fmc.bd.agent, 3689dfa50064ffa80130431098f51b96</desc>
			<g>
				<desc>null, figure.plane, null</desc>
				<path d=" M 73.15133037684004,22.19889135244989 L 103.21784922384676,22.19889135244989 L 103.21784922384676,7.165631928946517 L 73.15133037684004,7.165631928946517 z" fill="rgb(255,255,255)"/>
				<line x1="73.15133037684004" y1="22.19889135244989" x2="103.21784922384676" y2="22.19889135244989" stroke="rgb(127,127,127)" stroke-width="0.25055432372505854" stroke-linecap="round"/>
				<line x1="103.21784922384676" y1="22.19889135244989" x2="103.21784922384676" y2="7.165631928946517" stroke="rgb(127,127,127)" stroke-width="0.25055432372505854" stroke-linecap="round"/>
				<line x1="103.21784922384676" y1="7.165631928946517" x2="73.15133037684004" y2="7.165631928946517" stroke="rgb(127,127,127)" stroke-width="0.25055432372505854" stroke-linecap="round"/>
				<line x1="73.15133037684004" y1="7.165631928946517" x2="73.15133037684004" y2="22.19889135244989" stroke="rgb(127,127,127)" stroke-width="0.25055432372505854" stroke-linecap="round"/>
				<g>
					<desc>null, supplement, null</desc>
					<circle cx="72.39966740566487" cy="22.95055432362506" r="0.25055432372505854" fill="rgb(63,63,63)"/>
					<circle cx="71.6480044344897" cy="23.702217294800214" r="0.25055432372505854" fill="rgb(63,63,63)"/>
					<circle cx="70.89634146331454" cy="24.453880265975382" r="0.25055432372505854" fill="rgb(63,63,63)"/>
				</g>
				<g>
					<desc>null, supplement, null</desc>
					<circle cx="102.46618625267159" cy="22.95055432362506" r="0.25055432372505854" fill="rgb(63,63,63)"/>
					<circle cx="101.71452328149643" cy="23.702217294800214" r="0.25055432372505854" fill="rgb(63,63,63)"/>
					<circle cx="100.96286031032125" cy="24.453880265975382" r="0.25055432372505854" fill="rgb(63,63,63)"/>
				</g>
				<g>
					<desc>null, supplement, null</desc>
					<circle cx="102.46618625267159" cy="7.9172949001217" r="0.25055432372505854" fill="rgb(63,63,63)"/>
					<circle cx="101.71452328149643" cy="8.668957871296868" r="0.25055432372505854" fill="rgb(63,63,63)"/>
					<circle cx="100.96286031032125" cy="9.420620842472037" r="0.25055432372505854" fill="rgb(63,63,63)"/>
				</g>
				<g>
					<desc>null, supplement, null</desc>
					<circle cx="72.39966740566487" cy="7.9172949001217" r="0.25055432372505854" fill="rgb(63,63,63)"/>
					<circle cx="71.6480044344897" cy="8.668957871296868" r="0.25055432372505854" fill="rgb(63,63,63)"/>
					<circle cx="70.89634146331454" cy="9.420620842472037" r="0.25055432372505854" fill="rgb(63,63,63)"/>
				</g>
			</g>
			<g>
				<desc>null, figure.plane, null</desc>
				<path d=" M 70.14467849213936,25.20554323715056 L 100.21119733914608,25.20554323715056 L 100.21119733914608,10.172283813647189 L 70.14467849213936,10.172283813647189 z" fill="rgb(255,255,255)"/>
				<line x1="70.14467849213936" y1="25.20554323715056" x2="100.21119733914608" y2="25.20554323715056" stroke="rgb(0,0,0)" stroke-width="0.5011086474501171" stroke-linecap="round"/>
				<line x1="100.21119733914608" y1="25.20554323715056" x2="100.21119733914608" y2="10.172283813647189" stroke="rgb(0,0,0)" stroke-width="0.5011086474501171" stroke-linecap="round"/>
				<line x1="100.21119733914608" y1="10.172283813647189" x2="70.14467849213936" y2="10.172283813647189" stroke="rgb(0,0,0)" stroke-width="0.5011086474501171" stroke-linecap="round"/>
				<line x1="70.14467849213936" y1="10.172283813647189" x2="70.14467849213936" y2="25.205543237150557" stroke="rgb(0,0,0)" stroke-width="0.5011086474501171" stroke-linecap="round"/>
				<g>
					<desc>null, supplement, null</desc>
					<text x="85.17793791564273" y="16.786917959988678" textLength="10.282749445676286" lengthAdjust="spacingAndGlyphs" text-anchor="middle" font-family="Arial" font-size="4.028913525498896">Event</text>
					<text x="85.17793791564273" y="21.29689578703968" textLength="21.647893569844815" lengthAdjust="spacingAndGlyphs" text-anchor="middle" font-family="Arial" font-size="4.028913525498896">Aggregation</text>
				</g>
			</g>
		</g>
		<g>
			<desc>Meter Data Unification and Synchronization, fmc.bd.agent, 368a2bd20064ffa801308bec37c6e061</desc>
			<g>
				<desc>null, figure.plane, null</desc>
				<path d=" M 135.28880266065391,25.20554323715056 L 165.35532150766068,25.20554323715056 L 165.35532150766068,10.172283813647189 L 135.28880266065391,10.172283813647189 z" fill="rgb(255,255,255)"/>
				<line x1="135.28880266065391" y1="25.20554323715056" x2="165.35532150766068" y2="25.20554323715056" stroke="rgb(0,0,0)" stroke-width="0.5011086474501171" stroke-linecap="round"/>
				<line x1="165.35532150766068" y1="25.20554323715056" x2="165.35532150766068" y2="10.172283813647189" stroke="rgb(0,0,0)" stroke-width="0.5011086474501171" stroke-linecap="round"/>
				<line x1="165.35532150766068" y1="10.172283813647189" x2="135.28880266065391" y2="10.172283813647189" stroke="rgb(0,0,0)" stroke-width="0.5011086474501171" stroke-linecap="round"/>
				<line x1="135.28880266065391" y1="10.172283813647189" x2="135.28880266065391" y2="25.205543237150557" stroke="rgb(0,0,0)" stroke-width="0.5011086474501171" stroke-linecap="round"/>
				<g>
					<desc>null, supplement, null</desc>
					<text x="150.3220620841573" y="14.882705099678253" textLength="17.63902439024392" lengthAdjust="spacingAndGlyphs" text-anchor="middle" font-family="Arial" font-size="3.5812564671101295">Meter Data</text>
					<text x="150.3220620841573" y="18.891574279279144" textLength="23.67905395417593" lengthAdjust="spacingAndGlyphs" text-anchor="middle" font-family="Arial" font-size="3.5812564671101295">Unification and</text>
					<text x="150.3220620841573" y="22.900443458880034" textLength="25.389504804138976" lengthAdjust="spacingAndGlyphs" text-anchor="middle" font-family="Arial" font-size="3.5812564671101295">Synchronization</text>
				</g>
			</g>
		</g>
		<g>
			<desc>Industry-Specific Enterprise Application, fmc.bd.agent, 368ad9580064ffa801307d605ffb880d</desc>
			<g>
				<desc>null, figure.plane, null</desc>
				<path d=" M 200.43292682916848,25.20554323715056 L 230.4994456761752,25.20554323715056 L 230.4994456761752,10.172283813647189 L 200.43292682916848,10.172283813647189 z" fill="rgb(255,255,255)"/>
				<line x1="200.43292682916848" y1="25.20554323715056" x2="230.4994456761752" y2="25.20554323715056" stroke="rgb(0,0,0)" stroke-width="0.5011086474501171" stroke-linecap="round"/>
				<line x1="230.4994456761752" y1="25.20554323715056" x2="230.4994456761752" y2="10.172283813647189" stroke="rgb(0,0,0)" stroke-width="0.5011086474501171" stroke-linecap="round"/>
				<line x1="230.4994456761752" y1="10.172283813647189" x2="200.43292682916848" y2="10.172283813647189" stroke="rgb(0,0,0)" stroke-width="0.5011086474501171" stroke-linecap="round"/>
				<line x1="200.43292682916848" y1="10.172283813647189" x2="200.43292682916848" y2="25.205543237150557" stroke="rgb(0,0,0)" stroke-width="0.5011086474501171" stroke-linecap="round"/>
				<g>
					<desc>null, supplement, null</desc>
					<text x="215.46618625267186" y="14.882705099678253" textLength="26.511988174427227" lengthAdjust="spacingAndGlyphs" text-anchor="middle" font-family="Arial" font-size="3.5812564671101295">Industry-Specific</text>
					<text x="215.46618625267186" y="18.891574279279144" textLength="16.30273466371029" lengthAdjust="spacingAndGlyphs" text-anchor="middle" font-family="Arial" font-size="3.5812564671101295">Enterprise</text>
					<text x="215.46618625267186" y="22.900443458880034" textLength="17.53212121212123" lengthAdjust="spacingAndGlyphs" text-anchor="middle" font-family="Arial" font-size="3.5812564671101295">Application</text>
				</g>
			</g>
		</g>
		<g>
			<desc>Schnittstelle, fmc.bd.channel, 368c636b0064ffa80130a82410834db6</desc>
			<g>
				<desc>null, figure.plane, null</desc>
				<path d="M 50.10033259413489,17.68891352539887 A 2.5055432372505635 2.50554323725056 0 0 0 52.605875831385454,20.19445676264943 L 52.605875831385454,20.19445676264943 A 2.5055432372505564 2.50554323725056 0 0 0 55.11141906863601,17.68891352539887 L 55.11141906863601,17.68891352539887 A 2.5055432372505564 2.5055432372505475 0 0 0 52.605875831385454,15.183370288148323 L 52.605875831385454,15.183370288148323 A 2.5055432372505635 2.5055432372505475 0 0 0 50.10033259413489,17.68891352539887 z" fill="rgb(255,255,255)"/>
				<path d="M 50.10033259413489,17.68891352539887 A 2.5055432372505635 2.50554323725056 0 0 0 52.605875831385454,20.19445676264943" stroke="rgb(0,0,0)" stroke-width="0.5011086474501171" fill="none" stroke-linecap="round"/>
				<path d="M 52.605875831385454,20.19445676264943 A 2.5055432372505564 2.50554323725056 0 0 0 55.11141906863601,17.68891352539887" stroke="rgb(0,0,0)" stroke-width="0.5011086474501171" fill="none" stroke-linecap="round"/>
				<path d="M 55.11141906863601,17.68891352539887 A 2.5055432372505564 2.5055432372505475 0 0 0 52.605875831385454,15.183370288148323" stroke="rgb(0,0,0)" stroke-width="0.5011086474501171" fill="none" stroke-linecap="round"/>
				<path d="M 52.605875831385454,15.183370288148323 A 2.5055432372505635 2.5055432372505475 0 0 0 50.10033259413489,17.68891352539887" stroke="rgb(0,0,0)" stroke-width="0.5011086474501171" fill="none" stroke-linecap="round"/>
			</g>
			<g>
				<desc>null, figure.lineshape, null</desc>
				<line x1="35.161031042028426" y1="17.68891352539887" x2="50.006374722737995" y2="17.68891352539887" stroke="rgb(0,0,0)" stroke-width="0.25055432372505854" stroke-linecap="round"/>
			</g>
			<g>
				<desc>null, figure.lineshape, null</desc>
				<line x1="55.205376940032906" y1="17.68891352539887" x2="70.05072062074247" y2="17.68891352539887" stroke="rgb(0,0,0)" stroke-width="0.25055432372505854" stroke-linecap="round"/>
			</g>
		</g>
		<g>
			<desc>Schnittstelle, fmc.bd.channel, 368ce5b40064ffa80130de938ba1b192</desc>
			<g>
				<desc>null, figure.plane, null</desc>
				<path d="M 115.24445676264945,17.68891352539887 A 2.5055432372505493 2.50554323725056 0 0 0 117.7499999999,20.19445676264943 L 117.7499999999,20.19445676264943 A 2.5055432372505635 2.50554323725056 0 0 0 120.25554323715056,17.68891352539887 L 120.25554323715056,17.68891352539887 A 2.5055432372505635 2.5055432372505475 0 0 0 117.7499999999,15.183370288148323 L 117.7499999999,15.183370288148323 A 2.5055432372505493 2.5055432372505475 0 0 0 115.24445676264945,17.68891352539887 z" fill="rgb(255,255,255)"/>
				<path d="M 115.24445676264945,17.68891352539887 A 2.5055432372505493 2.50554323725056 0 0 0 117.7499999999,20.19445676264943" stroke="rgb(0,0,0)" stroke-width="0.5011086474501171" fill="none" stroke-linecap="round"/>
				<path d="M 117.7499999999,20.19445676264943 A 2.5055432372505635 2.50554323725056 0 0 0 120.25554323715056,17.68891352539887" stroke="rgb(0,0,0)" stroke-width="0.5011086474501171" fill="none" stroke-linecap="round"/>
				<path d="M 120.25554323715056,17.68891352539887 A 2.5055432372505635 2.5055432372505475 0 0 0 117.7499999999,15.183370288148323" stroke="rgb(0,0,0)" stroke-width="0.5011086474501171" fill="none" stroke-linecap="round"/>
				<path d="M 117.7499999999,15.183370288148323 A 2.5055432372505493 2.5055432372505475 0 0 0 115.24445676264945,17.68891352539887" stroke="rgb(0,0,0)" stroke-width="0.5011086474501171" fill="none" stroke-linecap="round"/>
				<g>
					<desc>null, supplement, null</desc>
					<text x="118.75221730973442" y="13.429490022072926" textLength="1.603547671840363" lengthAdjust="spacingAndGlyphs" text-anchor="middle" font-family="Arial" font-size="2.23828529194384">R</text>
					<path d="M 115.40139641781845,12.898628048680447 A 0.2549590310143782 0.2549590310143543 0 0 1 115.40139641781845,12.457026053115056 L 117.12403366043345,11.462460977375201 A 0.26762638030543917 0.26762638030541125 0 0 1 117.49101333660434,11.825599147391712 L 117.49101333660434,11.82559914739172 A 1.7361955253400345 1.736195525340045 0 0 0 117.49101333660435,13.530054954403779 L 117.49101333660434,13.530054954403766 A 0.26762638030541974 0.26762638030544605 0 0 1 117.12403366043348,13.893193124420321 z"/>
				</g>
			</g>
			<g>
				<desc>null, figure.lineshape, null</desc>
				<line x1="100.30515521054299" y1="17.68891352539887" x2="115.15049889125255" y2="17.68891352539887" stroke="rgb(0,0,0)" stroke-width="0.25055432372505854" stroke-linecap="round"/>
			</g>
			<g>
				<desc>null, figure.lineshape, null</desc>
				<line x1="120.34950110854746" y1="17.68891352539887" x2="135.19484478925702" y2="17.68891352539887" stroke="rgb(0,0,0)" stroke-width="0.25055432372505854" stroke-linecap="round"/>
			</g>
		</g>
		<g>
			<desc>Schnittstelle, fmc.bd.channel, 368f2dc70064ffa801308752ce23fc7e</desc>
			<g>
				<desc>null, figure.plane, null</desc>
				<path d="M 180.388580931164,17.68891352539887 A 2.5055432372505777 2.50554323725056 0 0 0 182.89412416841458,20.19445676264943 L 182.89412416841458,20.19445676264943 A 2.5055432372505777 2.50554323725056 0 0 0 185.39966740566516,17.68891352539887 L 185.39966740566516,17.68891352539887 A 2.5055432372505777 2.5055432372505475 0 0 0 182.89412416841458,15.183370288148323 L 182.89412416841458,15.183370288148323 A 2.5055432372505777 2.5055432372505475 0 0 0 180.388580931164,17.68891352539887 z" fill="rgb(255,255,255)"/>
				<path d="M 180.388580931164,17.68891352539887 A 2.5055432372505777 2.50554323725056 0 0 0 182.89412416841458,20.19445676264943" stroke="rgb(0,0,0)" stroke-width="0.5011086474501171" fill="none" stroke-linecap="round"/>
				<path d="M 182.89412416841458,20.19445676264943 A 2.5055432372505777 2.50554323725056 0 0 0 185.39966740566516,17.68891352539887" stroke="rgb(0,0,0)" stroke-width="0.5011086474501171" fill="none" stroke-linecap="round"/>
				<path d="M 185.39966740566516,17.68891352539887 A 2.5055432372505777 2.5055432372505475 0 0 0 182.89412416841458,15.183370288148323" stroke="rgb(0,0,0)" stroke-width="0.5011086474501171" fill="none" stroke-linecap="round"/>
				<path d="M 182.89412416841458,15.183370288148323 A 2.5055432372505777 2.5055432372505475 0 0 0 180.388580931164,17.68891352539887" stroke="rgb(0,0,0)" stroke-width="0.5011086474501171" fill="none" stroke-linecap="round"/>
				<g>
					<desc>null, supplement, null</desc>
					<text x="183.896341478249" y="13.429490022072926" textLength="1.603547671840363" lengthAdjust="spacingAndGlyphs" text-anchor="middle" font-family="Arial" font-size="2.23828529194384">R</text>
					<path d="M 180.54552058633303,12.898628048680479 A 0.2549590310143782 0.2549590310143813 0 0 1 180.54552058633303,12.457026053115042 L 182.268157828948,11.4624609773752 A 0.2676263803054559 0.2676263803053872 0 0 1 182.6351375051189,11.82559914739168 L 182.6351375051189,11.825599147391708 A 1.7361955253400654 1.7361955253400772 0 0 0 182.6351375051189,13.530054954403791 L 182.6351375051189,13.530054954403788 A 0.2676263803054233 0.26762638030543057 0 0 1 182.26815782894803,13.893193124420323 z"/>
				</g>
			</g>
			<g>
				<desc>null, figure.lineshape, null</desc>
				<line x1="165.44927937905757" y1="17.68891352539887" x2="180.2946230597671" y2="17.68891352539887" stroke="rgb(0,0,0)" stroke-width="0.25055432372505854" stroke-linecap="round"/>
			</g>
			<g>
				<desc>null, figure.lineshape, null</desc>
				<line x1="185.49362527706205" y1="17.68891352539887" x2="200.33896895777158" y2="17.68891352539887" stroke="rgb(0,0,0)" stroke-width="0.25055432372505854" stroke-linecap="round"/>
			</g>
		</g>
		<g>
			<desc>, fmc.cm.planecomment, 3690fa760064ffa8013036dd345d1fc0</desc>
			<g>
				<desc>null, figure.plane, null</desc>
				<g>
					<desc>null, supplement, null</desc>
					<text x="28.80321507750514" y="36.58070953426811" textLength="21.226962305986753" lengthAdjust="spacingAndGlyphs" text-anchor="middle" font-family="Arial" font-size="4.0289135254989015">Households</text>
				</g>
			</g>
		</g>
		<g>
			<desc>, fmc.cm.planecomment, 36910f7d0064ffa80130e0c9e12592fc</desc>
			<g>
				<desc>null, figure.plane, null</desc>
				<g>
					<desc>null, supplement, null</desc>
					<text x="85.17793791564273" y="34.3257206207426" textLength="40.95059866962316" lengthAdjust="spacingAndGlyphs" text-anchor="middle" font-family="Arial" font-size="4.0289135254989015">Regional Energy Asset</text>
					<text x="85.17793791564273" y="38.83569844779361" textLength="20.385099778270558" lengthAdjust="spacingAndGlyphs" text-anchor="middle" font-family="Arial" font-size="4.0289135254989015">Companies</text>
				</g>
			</g>
		</g>
		<g>
			<desc>, fmc.cm.planecomment, 369123300064ffa801302fa0fc90bd4f</desc>
			<g>
				<desc>null, figure.plane, null</desc>
				<g>
					<desc>null, supplement, null</desc>
					<text x="150.3220620841573" y="36.58070953426811" textLength="43.05525498891363" lengthAdjust="spacingAndGlyphs" text-anchor="middle" font-family="Arial" font-size="4.0289135254989015">Energy Provider Partner</text>
				</g>
			</g>
		</g>
		<g>
			<desc>, fmc.cm.planecomment, 369138240064ffa801303f86f2d08d71</desc>
			<g>
				<desc>null, figure.plane, null</desc>
				<g>
					<desc>null, supplement, null</desc>
					<text x="206.6967849222949" y="36.58070953426811" textLength="28.74359201773843" lengthAdjust="spacingAndGlyphs" text-anchor="middle" font-family="Arial" font-size="4.0289135254989015">Energy Provider</text>
				</g>
			</g>
		</g>
	</g>
</svg>
