<?xml version="1.0" encoding="UTF-8"?>
<svg width="230.49999999980002mm" height="30.624999999900012mm" viewBox="0.0 0.0 230.49999999980002 30.624999999900012" xmlns="http://www.w3.org/2000/svg" xmlns:xlink="http://www.w3.org/1999/xlink" xmlns:ev="http://www.w3.org/2001/xml-events" version="1.1">
	<g>
		<desc>Data Simulator, fmc.bd, 35fa30a70064ffa80130fab797239b96</desc>
		<g>
			<desc>Concentrator, fmc.bd.agent, 35fa70320064ffa80130f231205cf442</desc>
			<g>
				<desc>null, figure.plane, null</desc>
				<path d=" M 73.15476190466183,20.135912698312598 L 103.22278911554625,20.135912698312598 L 103.22278911554625,5.101899092870433 L 73.15476190466183,5.101899092870433 z" fill="rgb(255,255,255)"/>
				<line x1="73.15476190466183" y1="20.135912698312598" x2="103.22278911554625" y2="20.135912698312598" stroke="rgb(127,127,127)" stroke-width="0.25056689342404237" stroke-linecap="round"/>
				<line x1="103.22278911554625" y1="20.135912698312598" x2="103.22278911554625" y2="5.101899092870433" stroke="rgb(127,127,127)" stroke-width="0.25056689342404237" stroke-linecap="round"/>
				<line x1="103.22278911554625" y1="5.101899092870433" x2="73.15476190466183" y2="5.101899092870433" stroke="rgb(127,127,127)" stroke-width="0.25056689342404237" stroke-linecap="round"/>
				<line x1="73.15476190466183" y1="5.101899092870433" x2="73.15476190466183" y2="20.135912698312598" stroke="rgb(127,127,127)" stroke-width="0.25056689342404237" stroke-linecap="round"/>
				<g>
					<desc>null, supplement, null</desc>
					<circle cx="72.40306122438972" cy="20.88761337858471" r="0.2505668934240524" fill="rgb(63,63,63)"/>
					<circle cx="71.65136054411761" cy="21.63931405885682" r="0.2505668934240524" fill="rgb(63,63,63)"/>
					<circle cx="70.8996598638455" cy="22.39101473912893" r="0.2505668934240524" fill="rgb(63,63,63)"/>
				</g>
				<g>
					<desc>null, supplement, null</desc>
					<circle cx="102.47108843527414" cy="20.88761337858471" r="0.2505668934240524" fill="rgb(63,63,63)"/>
					<circle cx="101.71938775500202" cy="21.63931405885682" r="0.2505668934240524" fill="rgb(63,63,63)"/>
					<circle cx="100.96768707472991" cy="22.39101473912893" r="0.2505668934240524" fill="rgb(63,63,63)"/>
				</g>
				<g>
					<desc>null, supplement, null</desc>
					<circle cx="102.47108843527414" cy="5.853599773142515" r="0.2505668934240524" fill="rgb(63,63,63)"/>
					<circle cx="101.71938775500202" cy="6.605300453414626" r="0.2505668934240524" fill="rgb(63,63,63)"/>
					<circle cx="100.96768707472991" cy="7.357001133686736" r="0.2505668934240524" fill="rgb(63,63,63)"/>
				</g>
				<g>
					<desc>null, supplement, null</desc>
					<circle cx="72.40306122438972" cy="5.853599773142515" r="0.2505668934240524" fill="rgb(63,63,63)"/>
					<circle cx="71.65136054411761" cy="6.605300453414626" r="0.2505668934240524" fill="rgb(63,63,63)"/>
					<circle cx="70.8996598638455" cy="7.357001133686736" r="0.2505668934240524" fill="rgb(63,63,63)"/>
				</g>
			</g>
			<g>
				<desc>null, figure.plane, null</desc>
				<path d=" M 70.14795918357339,23.142715419401043 L 100.2159863944578,23.142715419401043 L 100.2159863944578,8.108701813958847 L 70.14795918357339,8.108701813958847 z" fill="rgb(255,255,255)"/>
				<line x1="70.14795918357339" y1="23.142715419401043" x2="100.2159863944578" y2="23.142715419401043" stroke="rgb(0,0,0)" stroke-width="0.5011337868481048" stroke-linecap="round"/>
				<line x1="100.2159863944578" y1="23.142715419401043" x2="100.2159863944578" y2="8.108701813958847" stroke="rgb(0,0,0)" stroke-width="0.5011337868481048" stroke-linecap="round"/>
				<line x1="100.2159863944578" y1="8.108701813958847" x2="70.14795918357339" y2="8.108701813958847" stroke="rgb(0,0,0)" stroke-width="0.5011337868481048" stroke-linecap="round"/>
				<line x1="70.14795918357339" y1="8.108701813958847" x2="70.14795918357339" y2="23.142715419401043" stroke="rgb(0,0,0)" stroke-width="0.5011337868481048" stroke-linecap="round"/>
				<g>
					<desc>null, supplement, null</desc>
					<text x="85.18197278901559" y="16.978769841169736" textLength="23.212517006802766" lengthAdjust="spacingAndGlyphs" text-anchor="middle" font-family="Arial" font-size="4.0291156462585125">Concentrator</text>
				</g>
			</g>
		</g>
		<g>
			<desc>Database Client, fmc.bd.agent, 35fb2d740064ffa8013082ae4227cba7</desc>
			<g>
				<desc>null, figure.plane, null</desc>
				<path d=" M 138.30215419491142,20.135912698312598 L 168.37018140579582,20.135912698312598 L 168.37018140579582,5.101899092870433 L 138.30215419491142,5.101899092870433 z" fill="rgb(255,255,255)"/>
				<line x1="138.30215419491142" y1="20.135912698312598" x2="168.37018140579582" y2="20.135912698312598" stroke="rgb(127,127,127)" stroke-width="0.25056689342404237" stroke-linecap="round"/>
				<line x1="168.37018140579582" y1="20.135912698312598" x2="168.37018140579582" y2="5.101899092870433" stroke="rgb(127,127,127)" stroke-width="0.25056689342404237" stroke-linecap="round"/>
				<line x1="168.37018140579582" y1="5.101899092870433" x2="138.30215419491142" y2="5.101899092870433" stroke="rgb(127,127,127)" stroke-width="0.25056689342404237" stroke-linecap="round"/>
				<line x1="138.30215419491142" y1="5.101899092870433" x2="138.30215419491142" y2="20.135912698312598" stroke="rgb(127,127,127)" stroke-width="0.25056689342404237" stroke-linecap="round"/>
				<g>
					<desc>null, supplement, null</desc>
					<circle cx="137.55045351463926" cy="20.88761337858471" r="0.2505668934240524" fill="rgb(63,63,63)"/>
					<circle cx="136.79875283436715" cy="21.63931405885682" r="0.2505668934240524" fill="rgb(63,63,63)"/>
					<circle cx="136.04705215409504" cy="22.39101473912893" r="0.2505668934240524" fill="rgb(63,63,63)"/>
				</g>
				<g>
					<desc>null, supplement, null</desc>
					<circle cx="167.6184807255237" cy="20.88761337858471" r="0.2505668934240524" fill="rgb(63,63,63)"/>
					<circle cx="166.8667800452516" cy="21.63931405885682" r="0.2505668934240524" fill="rgb(63,63,63)"/>
					<circle cx="166.1150793649795" cy="22.39101473912893" r="0.2505668934240524" fill="rgb(63,63,63)"/>
				</g>
				<g>
					<desc>null, supplement, null</desc>
					<circle cx="167.6184807255237" cy="5.853599773142515" r="0.2505668934240524" fill="rgb(63,63,63)"/>
					<circle cx="166.8667800452516" cy="6.605300453414626" r="0.2505668934240524" fill="rgb(63,63,63)"/>
					<circle cx="166.1150793649795" cy="7.357001133686736" r="0.2505668934240524" fill="rgb(63,63,63)"/>
				</g>
				<g>
					<desc>null, supplement, null</desc>
					<circle cx="137.55045351463926" cy="5.853599773142515" r="0.2505668934240524" fill="rgb(63,63,63)"/>
					<circle cx="136.79875283436715" cy="6.605300453414626" r="0.2505668934240524" fill="rgb(63,63,63)"/>
					<circle cx="136.04705215409504" cy="7.357001133686736" r="0.2505668934240524" fill="rgb(63,63,63)"/>
				</g>
			</g>
			<g>
				<desc>null, figure.plane, null</desc>
				<path d=" M 135.29535147382293,23.142715419401043 L 165.36337868470738,23.142715419401043 L 165.36337868470738,8.108701813958847 L 135.29535147382293,8.108701813958847 z" fill="rgb(255,255,255)"/>
				<line x1="135.29535147382293" y1="23.142715419401043" x2="165.36337868470738" y2="23.142715419401043" stroke="rgb(0,0,0)" stroke-width="0.5011337868481048" stroke-linecap="round"/>
				<line x1="165.36337868470738" y1="23.142715419401043" x2="165.36337868470738" y2="8.108701813958847" stroke="rgb(0,0,0)" stroke-width="0.5011337868481048" stroke-linecap="round"/>
				<line x1="165.36337868470738" y1="8.108701813958847" x2="135.29535147382293" y2="8.108701813958847" stroke="rgb(0,0,0)" stroke-width="0.5011337868481048" stroke-linecap="round"/>
				<line x1="135.29535147382293" y1="8.108701813958847" x2="135.29535147382293" y2="23.142715419401043" stroke="rgb(0,0,0)" stroke-width="0.5011337868481048" stroke-linecap="round"/>
				<g>
					<desc>null, supplement, null</desc>
					<text x="150.32936507926516" y="14.723667800353404" textLength="17.198911564625885" lengthAdjust="spacingAndGlyphs" text-anchor="middle" font-family="Arial" font-size="4.0291156462585125">Database</text>
					<text x="150.32936507926516" y="19.233871881986065" textLength="10.28326530612247" lengthAdjust="spacingAndGlyphs" text-anchor="middle" font-family="Arial" font-size="4.0291156462585125">Client</text>
				</g>
			</g>
		</g>
		<g>
			<desc>Database, fmc.bd.agent, 35fb7a390064ffa801308baf58224952</desc>
			<g>
				<desc>null, figure.plane, null</desc>
				<path d=" M 200.4427437640725,23.142715419401043 L 225.4994331064762,23.142715419401043 L 225.4994331064762,8.108701813958847 L 200.4427437640725,8.108701813958847 z" fill="rgb(255,255,255)"/>
				<line x1="200.4427437640725" y1="23.142715419401043" x2="225.4994331064762" y2="23.142715419401043" stroke="rgb(0,0,0)" stroke-width="0.5011337868481048" stroke-linecap="round"/>
				<line x1="225.4994331064762" y1="23.142715419401043" x2="225.4994331064762" y2="8.108701813958847" stroke="rgb(0,0,0)" stroke-width="0.5011337868481048" stroke-linecap="round"/>
				<line x1="225.4994331064762" y1="8.108701813958847" x2="200.4427437640725" y2="8.108701813958847" stroke="rgb(0,0,0)" stroke-width="0.5011337868481048" stroke-linecap="round"/>
				<line x1="200.4427437640725" y1="8.108701813958847" x2="200.4427437640725" y2="23.142715419401043" stroke="rgb(0,0,0)" stroke-width="0.5011337868481048" stroke-linecap="round"/>
				<g>
					<desc>null, supplement, null</desc>
					<text x="212.97108843527434" y="16.978769841169736" textLength="17.198911564625885" lengthAdjust="spacingAndGlyphs" text-anchor="middle" font-family="Arial" font-size="4.0291156462585125">Database</text>
				</g>
			</g>
		</g>
		<g>
			<desc>TCP/IP, fmc.bd.channel, 35fca2120064ffa801301999cd2a56b3</desc>
			<g>
				<desc>null, figure.plane, null</desc>
				<path d="M 118.25680272098846,12.618905895591494 A 2.5056689342403615 2.5056689342403686 0 0 0 120.76247165522882,15.124574829831863 L 120.76247165522882,15.124574829831863 A 2.5056689342403615 2.5056689342403686 0 0 0 123.26814058946918,12.618905895591494 L 123.26814058946918,12.618905895591494 A 2.5056689342403615 2.505668934240367 0 0 0 120.76247165522882,10.113236961351127 L 120.76247165522882,10.113236961351127 A 2.5056689342403615 2.505668934240367 0 0 0 118.25680272098846,12.618905895591494 z" fill="rgb(255,255,255)"/>
				<path d="M 118.25680272098846,12.618905895591494 A 2.5056689342403615 2.5056689342403686 0 0 0 120.76247165522882,15.124574829831863" stroke="rgb(127,127,127)" stroke-width="0.25056689342404237" fill="none" stroke-linecap="round"/>
				<path d="M 120.76247165522882,15.124574829831863 A 2.5056689342403615 2.5056689342403686 0 0 0 123.26814058946918,12.618905895591494" stroke="rgb(127,127,127)" stroke-width="0.25056689342404237" fill="none" stroke-linecap="round"/>
				<path d="M 123.26814058946918,12.618905895591494 A 2.5056689342403615 2.505668934240367 0 0 0 120.76247165522882,10.113236961351127" stroke="rgb(127,127,127)" stroke-width="0.25056689342404237" fill="none" stroke-linecap="round"/>
				<path d="M 120.76247165522882,10.113236961351127 A 2.5056689342403615 2.505668934240367 0 0 0 118.25680272098846,12.618905895591494" stroke="rgb(127,127,127)" stroke-width="0.25056689342404237" fill="none" stroke-linecap="round"/>
				<g>
					<desc>null, supplement, null</desc>
					<circle cx="121.78254646976656" cy="15.14238207067344" r="0.2505668934240524" fill="rgb(63,63,63)"/>
					<circle cx="121.03084578949445" cy="15.89408275094555" r="0.2505668934240524" fill="rgb(63,63,63)"/>
					<circle cx="120.27914510922234" cy="16.64578343121766" r="0.2505668934240524" fill="rgb(63,63,63)"/>
				</g>
				<g>
					<desc>null, supplement, null</desc>
					<circle cx="121.78254646976656" cy="11.598831081053772" r="0.2505668934240524" fill="rgb(63,63,63)"/>
					<circle cx="121.03084578949445" cy="12.350531761325897" r="0.2505668934240524" fill="rgb(63,63,63)"/>
					<circle cx="120.27914510922234" cy="13.102232441598007" r="0.2505668934240524" fill="rgb(63,63,63)"/>
				</g>
				<g>
					<desc>null, supplement, null</desc>
					<circle cx="118.23899548014687" cy="11.598831081053772" r="0.2505668934240524" fill="rgb(63,63,63)"/>
					<circle cx="117.48729479987475" cy="12.350531761325897" r="0.2505668934240524" fill="rgb(63,63,63)"/>
					<circle cx="116.73559411960267" cy="13.102232441598007" r="0.2505668934240524" fill="rgb(63,63,63)"/>
				</g>
			</g>
			<g>
				<desc>null, figure.plane, null</desc>
				<path d="M 115.24999999989998,15.625708616679937 A 2.50566893424039 2.505668934240383 0 0 0 117.75566893414037,18.13137755092032 L 117.75566893414037,18.13137755092032 A 2.5056689342403757 2.505668934240383 0 0 0 120.26133786838075,15.625708616679937 L 120.26133786838075,15.625708616679937 A 2.5056689342403757 2.5056689342403544 0 0 0 117.75566893414037,13.120039682439582 L 117.75566893414037,13.120039682439582 A 2.50566893424039 2.5056689342403544 0 0 0 115.24999999989998,15.625708616679937 z" fill="rgb(255,255,255)"/>
				<path d="M 115.24999999989998,15.625708616679937 A 2.50566893424039 2.505668934240383 0 0 0 117.75566893414037,18.13137755092032" stroke="rgb(0,0,0)" stroke-width="0.5011337868481048" fill="none" stroke-linecap="round"/>
				<path d="M 117.75566893414037,18.13137755092032 A 2.5056689342403757 2.505668934240383 0 0 0 120.26133786838075,15.625708616679937" stroke="rgb(0,0,0)" stroke-width="0.5011337868481048" fill="none" stroke-linecap="round"/>
				<path d="M 120.26133786838075,15.625708616679937 A 2.5056689342403757 2.5056689342403544 0 0 0 117.75566893414037,13.120039682439582" stroke="rgb(0,0,0)" stroke-width="0.5011337868481048" fill="none" stroke-linecap="round"/>
				<path d="M 117.75566893414037,13.120039682439582 A 2.50566893424039 2.5056689342403544 0 0 0 115.24999999989998,15.625708616679937" stroke="rgb(0,0,0)" stroke-width="0.5011337868481048" fill="none" stroke-linecap="round"/>
				<g>
					<desc>null, supplement, null</desc>
					<text x="117.75566893414036" y="23.24294217677067" textLength="13.049523809523876" lengthAdjust="spacingAndGlyphs" text-anchor="middle" font-family="Arial" font-size="4.029115646258523">TCP/IP</text>
				</g>
				<g>
					<desc>null, supplement, null</desc>
					<text x="116.75340134550927" y="8.860402494230947" textLength="1.6036281179138308" lengthAdjust="spacingAndGlyphs" text-anchor="middle" font-family="Arial" font-size="2.238397581254722">R</text>
					<path d="M 120.10439033993222,7.887889739128875 A 0.2549718216867487 0.2549718216867828 0 0 1 120.10439033993222,8.329513888788775 L 118.38166667681054,9.324128859431378 A 0.2676398064677995 0.2676398064678498 0 0 1 118.01466859016492,8.960972471659002 L 118.0146685901649,8.960972471659026 A 1.736282626032557 1.7362826260325666 0 0 0 118.01466859016492,7.256431156258646 L 118.01466859016492,7.256431156258701 A 0.26763980646777924 0.2676398064678823 0 0 1 118.38166667681051,6.893274768486286 z"/>
				</g>
			</g>
			<g>
				<desc>null, figure.lineshape, null</desc>
				<line x1="100.3099489794918" y1="15.625708616679937" x2="115.15603741486599" y2="15.625708616679937" stroke="rgb(0,0,0)" stroke-width="0.25056689342404237" stroke-linecap="round"/>
			</g>
			<g>
				<desc>null, figure.lineshape, null</desc>
				<line x1="120.35530045341473" y1="15.625708616679937" x2="135.20138888878896" y2="15.625708616679937" stroke="rgb(0,0,0)" stroke-width="0.25056689342404237" stroke-linecap="round"/>
			</g>
		</g>
		<g>
			<desc>ODBC, fmc.bd.channel, 35fd5fd70064ffa801307250b01f0e81</desc>
			<g>
				<desc>null, figure.plane, null</desc>
				<path d="M 183.40419501123802,12.618905895591494 A 2.50566893424039 2.5056689342403686 0 0 0 185.9098639454784,15.124574829831863 L 185.9098639454784,15.124574829831863 A 2.5056689342403615 2.5056689342403686 0 0 0 188.41553287971877,12.618905895591494 L 188.41553287971877,12.618905895591494 A 2.5056689342403615 2.505668934240367 0 0 0 185.9098639454784,10.113236961351127 L 185.9098639454784,10.113236961351127 A 2.50566893424039 2.505668934240367 0 0 0 183.40419501123802,12.618905895591494 z" fill="rgb(255,255,255)"/>
				<path d="M 183.40419501123802,12.618905895591494 A 2.50566893424039 2.5056689342403686 0 0 0 185.9098639454784,15.124574829831863" stroke="rgb(127,127,127)" stroke-width="0.25056689342404237" fill="none" stroke-linecap="round"/>
				<path d="M 185.9098639454784,15.124574829831863 A 2.5056689342403615 2.5056689342403686 0 0 0 188.41553287971877,12.618905895591494" stroke="rgb(127,127,127)" stroke-width="0.25056689342404237" fill="none" stroke-linecap="round"/>
				<path d="M 188.41553287971877,12.618905895591494 A 2.5056689342403615 2.505668934240367 0 0 0 185.9098639454784,10.113236961351127" stroke="rgb(127,127,127)" stroke-width="0.25056689342404237" fill="none" stroke-linecap="round"/>
				<path d="M 185.9098639454784,10.113236961351127 A 2.50566893424039 2.505668934240367 0 0 0 183.40419501123802,12.618905895591494" stroke="rgb(127,127,127)" stroke-width="0.25056689342404237" fill="none" stroke-linecap="round"/>
				<g>
					<desc>null, supplement, null</desc>
					<circle cx="186.92993876001614" cy="15.14238207067344" r="0.2505668934240524" fill="rgb(63,63,63)"/>
					<circle cx="186.17823807974403" cy="15.89408275094555" r="0.2505668934240524" fill="rgb(63,63,63)"/>
					<circle cx="185.42653739947193" cy="16.64578343121766" r="0.2505668934240524" fill="rgb(63,63,63)"/>
				</g>
				<g>
					<desc>null, supplement, null</desc>
					<circle cx="186.92993876001614" cy="11.598831081053772" r="0.2505668934240524" fill="rgb(63,63,63)"/>
					<circle cx="186.17823807974403" cy="12.350531761325897" r="0.2505668934240524" fill="rgb(63,63,63)"/>
					<circle cx="185.42653739947193" cy="13.102232441598007" r="0.2505668934240524" fill="rgb(63,63,63)"/>
				</g>
				<g>
					<desc>null, supplement, null</desc>
					<circle cx="183.38638777039642" cy="11.598831081053772" r="0.2505668934240524" fill="rgb(63,63,63)"/>
					<circle cx="182.63468709012432" cy="12.350531761325897" r="0.2505668934240524" fill="rgb(63,63,63)"/>
					<circle cx="181.88298640985224" cy="13.102232441598007" r="0.2505668934240524" fill="rgb(63,63,63)"/>
				</g>
			</g>
			<g>
				<desc>null, figure.plane, null</desc>
				<path d="M 180.39739229014955,15.625708616679937 A 2.50566893424039 2.505668934240383 0 0 0 182.90306122438994,18.13137755092032 L 182.90306122438994,18.13137755092032 A 2.50566893424039 2.505668934240383 0 0 0 185.40873015863033,15.625708616679937 L 185.40873015863033,15.625708616679937 A 2.50566893424039 2.5056689342403544 0 0 0 182.90306122438994,13.120039682439582 L 182.90306122438994,13.120039682439582 A 2.50566893424039 2.5056689342403544 0 0 0 180.39739229014955,15.625708616679937 z" fill="rgb(255,255,255)"/>
				<path d="M 180.39739229014955,15.625708616679937 A 2.50566893424039 2.505668934240383 0 0 0 182.90306122438994,18.13137755092032" stroke="rgb(0,0,0)" stroke-width="0.5011337868481048" fill="none" stroke-linecap="round"/>
				<path d="M 182.90306122438994,18.13137755092032 A 2.50566893424039 2.505668934240383 0 0 0 185.40873015863033,15.625708616679937" stroke="rgb(0,0,0)" stroke-width="0.5011337868481048" fill="none" stroke-linecap="round"/>
				<path d="M 185.40873015863033,15.625708616679937 A 2.50566893424039 2.5056689342403544 0 0 0 182.90306122438994,13.120039682439582" stroke="rgb(0,0,0)" stroke-width="0.5011337868481048" fill="none" stroke-linecap="round"/>
				<path d="M 182.90306122438994,13.120039682439582 A 2.50566893424039 2.5056689342403544 0 0 0 180.39739229014955,15.625708616679937" stroke="rgb(0,0,0)" stroke-width="0.5011337868481048" fill="none" stroke-linecap="round"/>
				<g>
					<desc>null, supplement, null</desc>
					<text x="182.90306122438994" y="23.24294217677067" textLength="11.606258503401419" lengthAdjust="spacingAndGlyphs" text-anchor="middle" font-family="Arial" font-size="4.029115646258523">ODBC</text>
				</g>
				<g>
					<desc>null, supplement, null</desc>
					<text x="181.90079363575884" y="8.860402494230947" textLength="1.6036281179138308" lengthAdjust="spacingAndGlyphs" text-anchor="middle" font-family="Arial" font-size="2.238397581254722">R</text>
					<path d="M 185.2517826301818,7.887889739128892 A 0.2549718216867549 0.2549718216867695 0 0 1 185.2517826301818,8.329513888788775 L 183.52905896706028,9.324128859431353 A 0.2676398064679282 0.26763980646774754 0 0 1 183.1620608804145,8.960972471659115 L 183.1620608804145,8.960972471659026 A 1.736282626032557 1.7362826260325666 0 0 0 183.1620608804145,7.256431156258646 L 183.1620608804145,7.256431156258597 A 0.26763980646789554 0.2676398064677879 0 0 1 183.52905896706025,6.89327476848631 z"/>
				</g>
			</g>
			<g>
				<desc>null, figure.lineshape, null</desc>
				<line x1="165.45734126974136" y1="15.625708616679937" x2="180.30342970511558" y2="15.625708616679937" stroke="rgb(0,0,0)" stroke-width="0.25056689342404237" stroke-linecap="round"/>
			</g>
			<g>
				<desc>null, figure.lineshape, null</desc>
				<line x1="185.5026927436643" y1="15.625708616679937" x2="200.34878117903853" y2="15.625708616679937" stroke="rgb(0,0,0)" stroke-width="0.25056689342404237" stroke-linecap="round"/>
			</g>
		</g>
		<g>
			<desc>Data Producer, fmc.bd.agent, 35fe44b30064ffa8013006ec8bc17ddd</desc>
			<g>
				<desc>null, figure.plane, null</desc>
				<path d=" M 8.007369614412253,20.135912698312598 L 38.07539682529667,20.135912698312598 L 38.07539682529667,5.101899092870433 L 8.007369614412253,5.101899092870433 z" fill="rgb(255,255,255)"/>
				<line x1="8.007369614412253" y1="20.135912698312598" x2="38.07539682529667" y2="20.135912698312598" stroke="rgb(127,127,127)" stroke-width="0.25056689342404237" stroke-linecap="round"/>
				<line x1="38.07539682529667" y1="20.135912698312598" x2="38.07539682529667" y2="5.101899092870433" stroke="rgb(127,127,127)" stroke-width="0.25056689342404237" stroke-linecap="round"/>
				<line x1="38.07539682529667" y1="5.101899092870433" x2="8.007369614412255" y2="5.101899092870433" stroke="rgb(127,127,127)" stroke-width="0.25056689342404237" stroke-linecap="round"/>
				<line x1="8.007369614412253" y1="5.101899092870433" x2="8.007369614412253" y2="20.135912698312598" stroke="rgb(127,127,127)" stroke-width="0.25056689342404237" stroke-linecap="round"/>
				<g>
					<desc>null, supplement, null</desc>
					<circle cx="7.255668934140143" cy="20.88761337858471" r="0.2505668934240524" fill="rgb(63,63,63)"/>
					<circle cx="6.503968253868033" cy="21.63931405885682" r="0.2505668934240524" fill="rgb(63,63,63)"/>
					<circle cx="5.752267573595923" cy="22.39101473912893" r="0.2505668934240524" fill="rgb(63,63,63)"/>
				</g>
				<g>
					<desc>null, supplement, null</desc>
					<circle cx="37.32369614502456" cy="20.88761337858471" r="0.2505668934240524" fill="rgb(63,63,63)"/>
					<circle cx="36.57199546475245" cy="21.63931405885682" r="0.2505668934240524" fill="rgb(63,63,63)"/>
					<circle cx="35.82029478448034" cy="22.39101473912893" r="0.2505668934240524" fill="rgb(63,63,63)"/>
				</g>
				<g>
					<desc>null, supplement, null</desc>
					<circle cx="37.32369614502456" cy="5.853599773142515" r="0.2505668934240524" fill="rgb(63,63,63)"/>
					<circle cx="36.57199546475245" cy="6.605300453414626" r="0.2505668934240524" fill="rgb(63,63,63)"/>
					<circle cx="35.82029478448034" cy="7.357001133686736" r="0.2505668934240524" fill="rgb(63,63,63)"/>
				</g>
				<g>
					<desc>null, supplement, null</desc>
					<circle cx="7.255668934140143" cy="5.853599773142515" r="0.2505668934240524" fill="rgb(63,63,63)"/>
					<circle cx="6.503968253868033" cy="6.605300453414626" r="0.2505668934240524" fill="rgb(63,63,63)"/>
					<circle cx="5.752267573595923" cy="7.357001133686736" r="0.2505668934240524" fill="rgb(63,63,63)"/>
				</g>
			</g>
			<g>
				<desc>null, figure.plane, null</desc>
				<path d=" M 5.000566893323811,23.142715419401043 L 35.06859410420823,23.142715419401043 L 35.06859410420823,8.108701813958847 L 5.000566893323811,8.108701813958847 z" fill="rgb(255,255,255)"/>
				<line x1="5.000566893323811" y1="23.142715419401043" x2="35.06859410420823" y2="23.142715419401043" stroke="rgb(0,0,0)" stroke-width="0.5011337868481048" stroke-linecap="round"/>
				<line x1="35.06859410420823" y1="23.142715419401043" x2="35.06859410420823" y2="8.108701813958847" stroke="rgb(0,0,0)" stroke-width="0.5011337868481048" stroke-linecap="round"/>
				<line x1="35.06859410420823" y1="8.108701813958847" x2="5.0005668933238105" y2="8.108701813958847" stroke="rgb(0,0,0)" stroke-width="0.5011337868481048" stroke-linecap="round"/>
				<line x1="5.000566893323811" y1="8.108701813958847" x2="5.000566893323811" y2="23.142715419401043" stroke="rgb(0,0,0)" stroke-width="0.5011337868481048" stroke-linecap="round"/>
				<g>
					<desc>null, supplement, null</desc>
					<text x="20.03458049876602" y="16.978769841169736" textLength="25.91863945578237" lengthAdjust="spacingAndGlyphs" text-anchor="middle" font-family="Arial" font-size="4.0291156462585125">Data Producer</text>
				</g>
			</g>
		</g>
		<g>
			<desc>TCP/IP, fmc.bd.channel, 35fe94af0064ffa80130e02c8b0394a9</desc>
			<g>
				<desc>null, figure.plane, null</desc>
				<path d="M 53.10941043073888,12.618905895591494 A 2.5056689342403686 2.5056689342403686 0 0 0 55.61507936497925,15.124574829831863 L 55.61507936497925,15.124574829831863 A 2.5056689342403686 2.5056689342403686 0 0 0 58.12074829921962,12.618905895591494 L 58.12074829921962,12.618905895591494 A 2.5056689342403686 2.505668934240367 0 0 0 55.61507936497925,10.113236961351127 L 55.61507936497925,10.113236961351127 A 2.5056689342403686 2.505668934240367 0 0 0 53.10941043073888,12.618905895591494 z" fill="rgb(255,255,255)"/>
				<path d="M 53.10941043073888,12.618905895591494 A 2.5056689342403686 2.5056689342403686 0 0 0 55.61507936497925,15.124574829831863" stroke="rgb(127,127,127)" stroke-width="0.25056689342404237" fill="none" stroke-linecap="round"/>
				<path d="M 55.61507936497925,15.124574829831863 A 2.5056689342403686 2.5056689342403686 0 0 0 58.12074829921962,12.618905895591494" stroke="rgb(127,127,127)" stroke-width="0.25056689342404237" fill="none" stroke-linecap="round"/>
				<path d="M 58.12074829921962,12.618905895591494 A 2.5056689342403686 2.505668934240367 0 0 0 55.61507936497925,10.113236961351127" stroke="rgb(127,127,127)" stroke-width="0.25056689342404237" fill="none" stroke-linecap="round"/>
				<path d="M 55.61507936497925,10.113236961351127 A 2.5056689342403686 2.505668934240367 0 0 0 53.10941043073888,12.618905895591494" stroke="rgb(127,127,127)" stroke-width="0.25056689342404237" fill="none" stroke-linecap="round"/>
				<g>
					<desc>null, supplement, null</desc>
					<circle cx="56.63515417951699" cy="15.14238207067344" r="0.2505668934240524" fill="rgb(63,63,63)"/>
					<circle cx="55.88345349924488" cy="15.89408275094555" r="0.2505668934240524" fill="rgb(63,63,63)"/>
					<circle cx="55.131752818972764" cy="16.64578343121766" r="0.2505668934240524" fill="rgb(63,63,63)"/>
				</g>
				<g>
					<desc>null, supplement, null</desc>
					<circle cx="56.63515417951699" cy="11.598831081053772" r="0.2505668934240524" fill="rgb(63,63,63)"/>
					<circle cx="55.88345349924488" cy="12.350531761325897" r="0.2505668934240524" fill="rgb(63,63,63)"/>
					<circle cx="55.131752818972764" cy="13.102232441598007" r="0.2505668934240524" fill="rgb(63,63,63)"/>
				</g>
				<g>
					<desc>null, supplement, null</desc>
					<circle cx="53.09160318989729" cy="11.598831081053772" r="0.2505668934240524" fill="rgb(63,63,63)"/>
					<circle cx="52.33990250962518" cy="12.350531761325897" r="0.2505668934240524" fill="rgb(63,63,63)"/>
					<circle cx="51.58820182935307" cy="13.102232441598007" r="0.2505668934240524" fill="rgb(63,63,63)"/>
				</g>
			</g>
			<g>
				<desc>null, figure.plane, null</desc>
				<path d="M 50.10260770965044,15.625708616679937 A 2.5056689342403615 2.505668934240383 0 0 0 52.608276643890804,18.13137755092032 L 52.608276643890804,18.13137755092032 A 2.5056689342403686 2.505668934240383 0 0 0 55.11394557813117,15.625708616679937 L 55.11394557813117,15.625708616679937 A 2.5056689342403686 2.5056689342403544 0 0 0 52.608276643890804,13.120039682439582 L 52.608276643890804,13.120039682439582 A 2.5056689342403615 2.5056689342403544 0 0 0 50.10260770965044,15.625708616679937 z" fill="rgb(255,255,255)"/>
				<path d="M 50.10260770965044,15.625708616679937 A 2.5056689342403615 2.505668934240383 0 0 0 52.608276643890804,18.13137755092032" stroke="rgb(0,0,0)" stroke-width="0.5011337868481048" fill="none" stroke-linecap="round"/>
				<path d="M 52.608276643890804,18.13137755092032 A 2.5056689342403686 2.505668934240383 0 0 0 55.11394557813117,15.625708616679937" stroke="rgb(0,0,0)" stroke-width="0.5011337868481048" fill="none" stroke-linecap="round"/>
				<path d="M 55.11394557813117,15.625708616679937 A 2.5056689342403686 2.5056689342403544 0 0 0 52.608276643890804,13.120039682439582" stroke="rgb(0,0,0)" stroke-width="0.5011337868481048" fill="none" stroke-linecap="round"/>
				<path d="M 52.608276643890804,13.120039682439582 A 2.5056689342403615 2.5056689342403544 0 0 0 50.10260770965044,15.625708616679937" stroke="rgb(0,0,0)" stroke-width="0.5011337868481048" fill="none" stroke-linecap="round"/>
				<g>
					<desc>null, supplement, null</desc>
					<text x="52.608276643890804" y="23.24294217677067" textLength="13.049523809523876" lengthAdjust="spacingAndGlyphs" text-anchor="middle" font-family="Arial" font-size="4.029115646258523">TCP/IP</text>
				</g>
				<g>
					<desc>null, supplement, null</desc>
					<text x="51.60600905525971" y="8.860402494230947" textLength="1.6036281179138308" lengthAdjust="spacingAndGlyphs" text-anchor="middle" font-family="Arial" font-size="2.238397581254722">R</text>
					<path d="M 54.95699804968269,7.887889739128887 A 0.25497182168673366 0.25497182168676846 0 0 1 54.95699804968269,8.329513888788762 L 53.234274386561054,9.32412885943137 A 0.26763980646785596 0.2676398064678002 0 0 1 52.86727629991535,8.96097247165906 L 52.867276299915346,8.960972471659034 A 1.736282626032534 1.7362826260325408 0 0 0 52.86727629991536,7.25643115625864 L 52.86727629991536,7.25643115625865 A 0.2676398064678224 0.267639806467837 0 0 1 53.23427438656102,6.893274768486293 z"/>
				</g>
			</g>
			<g>
				<desc>null, figure.lineshape, null</desc>
				<line x1="35.162556689242244" y1="15.625708616679937" x2="50.00864512461643" y2="15.625708616679937" stroke="rgb(0,0,0)" stroke-width="0.25056689342404237" stroke-linecap="round"/>
			</g>
			<g>
				<desc>null, figure.lineshape, null</desc>
				<line x1="55.207908163165186" y1="15.625708616679937" x2="70.05399659853937" y2="15.625708616679937" stroke="rgb(0,0,0)" stroke-width="0.25056689342404237" stroke-linecap="round"/>
			</g>
		</g>
	</g>
</svg>
