<?xml version="1.0" encoding="UTF-8"?>
<svg width="235.49999999980002mm" height="45.3999999998mm" viewBox="0.0 0.0 235.49999999980002 45.3999999998" xmlns="http://www.w3.org/2000/svg" xmlns:xlink="http://www.w3.org/1999/xlink" xmlns:ev="http://www.w3.org/2001/xml-events" version="1.1">
	<g>
		<desc>Data Simulator, fmc.bd, 35fa30a70064ffa80130fab797239b96</desc>
		<g>
			<desc>, fmc.cm.lineshapecomment, 367e14b20064ffa80130653923346daa</desc>
			<g>
				<desc>null, figure.lineshape, null</desc>
				<line x1="52.60587583138547" y1="5.311529933381108" x2="52.60587583138547" y2="8.789223946684881" stroke="rgb(191,191,191)" stroke-width="0.40088691796010173" stroke-linecap="round"/>
				<line x1="52.60587583138547" y1="10.52807095333677" x2="52.60587583138547" y2="14.005764966640545" stroke="rgb(191,191,191)" stroke-width="0.40088691796010173" stroke-linecap="round"/>
				<line x1="52.60587583138547" y1="15.744611973292432" x2="52.60587583138547" y2="19.222305986596208" stroke="rgb(191,191,191)" stroke-width="0.40088691796010173" stroke-linecap="round"/>
				<line x1="52.60587583138547" y1="20.961152993248096" x2="52.60587583138547" y2="24.43884700655187" stroke="rgb(191,191,191)" stroke-width="0.40088691796010173" stroke-linecap="round"/>
				<line x1="52.60587583138547" y1="26.17769401320376" x2="52.60587583138547" y2="29.655388026507534" stroke="rgb(191,191,191)" stroke-width="0.40088691796010173" stroke-linecap="round"/>
				<line x1="52.60587583138547" y1="31.394235033159422" x2="52.60587583138547" y2="34.871929046463194" stroke="rgb(191,191,191)" stroke-width="0.40088691796010173" stroke-linecap="round"/>
				<line x1="52.60587583138547" y1="36.610776053115075" x2="52.60587583138547" y2="40.08847006641885" stroke="rgb(191,191,191)" stroke-width="0.40088691796010173" stroke-linecap="round"/>
			</g>
		</g>
		<g>
			<desc>, fmc.cm.lineshapecomment, 367b295c0064ffa801308c8f6921d5a6</desc>
			<g>
				<desc>null, figure.lineshape, null</desc>
				<line x1="117.74999999990001" y1="5.311529933381108" x2="117.74999999990001" y2="8.789223946684881" stroke="rgb(191,191,191)" stroke-width="0.40088691796010173" stroke-linecap="round"/>
				<line x1="117.74999999990001" y1="10.52807095333677" x2="117.74999999990001" y2="14.005764966640545" stroke="rgb(191,191,191)" stroke-width="0.40088691796010173" stroke-linecap="round"/>
				<line x1="117.74999999990001" y1="15.744611973292432" x2="117.74999999990001" y2="19.222305986596208" stroke="rgb(191,191,191)" stroke-width="0.40088691796010173" stroke-linecap="round"/>
				<line x1="117.74999999990001" y1="20.961152993248096" x2="117.74999999990001" y2="24.43884700655187" stroke="rgb(191,191,191)" stroke-width="0.40088691796010173" stroke-linecap="round"/>
				<line x1="117.74999999990001" y1="26.17769401320376" x2="117.74999999990001" y2="29.655388026507534" stroke="rgb(191,191,191)" stroke-width="0.40088691796010173" stroke-linecap="round"/>
				<line x1="117.74999999990001" y1="31.394235033159422" x2="117.74999999990001" y2="34.871929046463194" stroke="rgb(191,191,191)" stroke-width="0.40088691796010173" stroke-linecap="round"/>
				<line x1="117.74999999990001" y1="36.610776053115075" x2="117.74999999990001" y2="40.08847006641885" stroke="rgb(191,191,191)" stroke-width="0.40088691796010173" stroke-linecap="round"/>
			</g>
		</g>
		<g>
			<desc>Concentrator, fmc.bd.agent, 35fa70320064ffa80130f231205cf442</desc>
			<g>
				<desc>null, figure.plane, null</desc>
				<path d=" M 73.15133037684005,22.198891352449888 L 103.21784922384677,22.198891352449888 L 103.21784922384677,7.165631928946545 L 73.15133037684005,7.165631928946545 z" fill="rgb(255,255,255)"/>
				<line x1="73.15133037684005" y1="22.198891352449888" x2="103.21784922384677" y2="22.198891352449888" stroke="rgb(127,127,127)" stroke-width="0.2505543237250485" stroke-linecap="round"/>
				<line x1="103.21784922384677" y1="22.198891352449888" x2="103.21784922384677" y2="7.165631928946546" stroke="rgb(127,127,127)" stroke-width="0.2505543237250485" stroke-linecap="round"/>
				<line x1="103.21784922384677" y1="7.165631928946545" x2="73.15133037684005" y2="7.165631928946545" stroke="rgb(127,127,127)" stroke-width="0.2505543237250485" stroke-linecap="round"/>
				<line x1="73.15133037684005" y1="7.165631928946545" x2="73.15133037684005" y2="22.198891352449884" stroke="rgb(127,127,127)" stroke-width="0.2505543237250485" stroke-linecap="round"/>
				<g>
					<desc>null, supplement, null</desc>
					<circle cx="72.39966740566489" cy="22.950554323625052" r="0.25055432372504854" fill="rgb(63,63,63)"/>
					<circle cx="71.64800443448972" cy="23.70221729480022" r="0.25055432372504854" fill="rgb(63,63,63)"/>
					<circle cx="70.89634146331454" cy="24.453880265975375" r="0.25055432372504854" fill="rgb(63,63,63)"/>
				</g>
				<g>
					<desc>null, supplement, null</desc>
					<circle cx="102.46618625267159" cy="22.950554323625052" r="0.25055432372504854" fill="rgb(63,63,63)"/>
					<circle cx="101.71452328149643" cy="23.70221729480022" r="0.25055432372504854" fill="rgb(63,63,63)"/>
					<circle cx="100.96286031032126" cy="24.453880265975375" r="0.25055432372504854" fill="rgb(63,63,63)"/>
				</g>
				<g>
					<desc>null, supplement, null</desc>
					<circle cx="102.46618625267159" cy="7.917294900121684" r="0.25055432372504854" fill="rgb(63,63,63)"/>
					<circle cx="101.71452328149643" cy="8.668957871296852" r="0.25055432372504854" fill="rgb(63,63,63)"/>
					<circle cx="100.96286031032126" cy="9.420620842472019" r="0.25055432372504854" fill="rgb(63,63,63)"/>
				</g>
				<g>
					<desc>null, supplement, null</desc>
					<circle cx="72.39966740566489" cy="7.917294900121684" r="0.25055432372504854" fill="rgb(63,63,63)"/>
					<circle cx="71.64800443448972" cy="8.668957871296852" r="0.25055432372504854" fill="rgb(63,63,63)"/>
					<circle cx="70.89634146331454" cy="9.420620842472019" r="0.25055432372504854" fill="rgb(63,63,63)"/>
				</g>
			</g>
			<g>
				<desc>null, figure.plane, null</desc>
				<path d=" M 70.14467849213938,25.205543237150543 L 100.2111973391461,25.205543237150543 L 100.2111973391461,10.172283813647187 L 70.14467849213938,10.172283813647187 z" fill="rgb(255,255,255)"/>
				<line x1="70.14467849213938" y1="25.205543237150543" x2="100.2111973391461" y2="25.205543237150543" stroke="rgb(0,0,0)" stroke-width="0.5011086474500971" stroke-linecap="round"/>
				<line x1="100.2111973391461" y1="25.205543237150543" x2="100.2111973391461" y2="10.172283813647187" stroke="rgb(0,0,0)" stroke-width="0.5011086474500971" stroke-linecap="round"/>
				<line x1="100.2111973391461" y1="10.172283813647187" x2="70.14467849213938" y2="10.172283813647187" stroke="rgb(0,0,0)" stroke-width="0.5011086474500971" stroke-linecap="round"/>
				<line x1="70.14467849213938" y1="10.172283813647187" x2="70.14467849213938" y2="25.20554323715054" stroke="rgb(0,0,0)" stroke-width="0.5011086474500971" stroke-linecap="round"/>
				<g>
					<desc>null, supplement, null</desc>
					<text x="85.17793791564273" y="19.041906873514176" textLength="23.211352549889206" lengthAdjust="spacingAndGlyphs" text-anchor="middle" font-family="Arial" font-size="4.028913525498904">Concentrator</text>
				</g>
			</g>
		</g>
		<g>
			<desc>Database Client, fmc.bd.agent, 35fb2d740064ffa8013082ae4227cba7</desc>
			<g>
				<desc>null, figure.plane, null</desc>
				<path d=" M 138.2954545453546,22.198891352449888 L 168.36197339236134,22.198891352449888 L 168.36197339236134,7.165631928946545 L 138.2954545453546,7.165631928946545 z" fill="rgb(255,255,255)"/>
				<line x1="138.2954545453546" y1="22.198891352449888" x2="168.36197339236134" y2="22.198891352449888" stroke="rgb(127,127,127)" stroke-width="0.2505543237250485" stroke-linecap="round"/>
				<line x1="168.36197339236134" y1="22.198891352449888" x2="168.36197339236134" y2="7.165631928946546" stroke="rgb(127,127,127)" stroke-width="0.2505543237250485" stroke-linecap="round"/>
				<line x1="168.36197339236134" y1="7.165631928946545" x2="138.2954545453546" y2="7.165631928946545" stroke="rgb(127,127,127)" stroke-width="0.2505543237250485" stroke-linecap="round"/>
				<line x1="138.2954545453546" y1="7.165631928946545" x2="138.2954545453546" y2="22.198891352449884" stroke="rgb(127,127,127)" stroke-width="0.2505543237250485" stroke-linecap="round"/>
				<g>
					<desc>null, supplement, null</desc>
					<circle cx="137.54379157417944" cy="22.950554323625052" r="0.25055432372504854" fill="rgb(63,63,63)"/>
					<circle cx="136.79212860300424" cy="23.70221729480022" r="0.25055432372504854" fill="rgb(63,63,63)"/>
					<circle cx="136.04046563182908" cy="24.453880265975375" r="0.25055432372504854" fill="rgb(63,63,63)"/>
				</g>
				<g>
					<desc>null, supplement, null</desc>
					<circle cx="167.61031042118614" cy="22.950554323625052" r="0.25055432372504854" fill="rgb(63,63,63)"/>
					<circle cx="166.85864745001098" cy="23.70221729480022" r="0.25055432372504854" fill="rgb(63,63,63)"/>
					<circle cx="166.1069844788358" cy="24.453880265975375" r="0.25055432372504854" fill="rgb(63,63,63)"/>
				</g>
				<g>
					<desc>null, supplement, null</desc>
					<circle cx="167.61031042118614" cy="7.917294900121684" r="0.25055432372504854" fill="rgb(63,63,63)"/>
					<circle cx="166.85864745001098" cy="8.668957871296852" r="0.25055432372504854" fill="rgb(63,63,63)"/>
					<circle cx="166.1069844788358" cy="9.420620842472019" r="0.25055432372504854" fill="rgb(63,63,63)"/>
				</g>
				<g>
					<desc>null, supplement, null</desc>
					<circle cx="137.54379157417944" cy="7.917294900121684" r="0.25055432372504854" fill="rgb(63,63,63)"/>
					<circle cx="136.79212860300424" cy="8.668957871296852" r="0.25055432372504854" fill="rgb(63,63,63)"/>
					<circle cx="136.04046563182908" cy="9.420620842472019" r="0.25055432372504854" fill="rgb(63,63,63)"/>
				</g>
			</g>
			<g>
				<desc>null, figure.plane, null</desc>
				<path d=" M 135.28880266065391,25.205543237150543 L 165.35532150766062,25.205543237150543 L 165.35532150766062,10.172283813647187 L 135.28880266065391,10.172283813647187 z" fill="rgb(255,255,255)"/>
				<line x1="135.28880266065391" y1="25.205543237150543" x2="165.35532150766062" y2="25.205543237150543" stroke="rgb(0,0,0)" stroke-width="0.5011086474500971" stroke-linecap="round"/>
				<line x1="165.35532150766062" y1="25.205543237150543" x2="165.35532150766062" y2="10.172283813647187" stroke="rgb(0,0,0)" stroke-width="0.5011086474500971" stroke-linecap="round"/>
				<line x1="165.35532150766062" y1="10.172283813647187" x2="135.28880266065391" y2="10.172283813647187" stroke="rgb(0,0,0)" stroke-width="0.5011086474500971" stroke-linecap="round"/>
				<line x1="135.28880266065391" y1="10.172283813647187" x2="135.28880266065391" y2="25.20554323715054" stroke="rgb(0,0,0)" stroke-width="0.5011086474500971" stroke-linecap="round"/>
				<g>
					<desc>null, supplement, null</desc>
					<text x="150.32206208415727" y="16.78691795998867" textLength="17.19804878048786" lengthAdjust="spacingAndGlyphs" text-anchor="middle" font-family="Arial" font-size="4.028913525498904">Database</text>
					<text x="150.32206208415727" y="21.29689578703968" textLength="10.282749445676306" lengthAdjust="spacingAndGlyphs" text-anchor="middle" font-family="Arial" font-size="4.028913525498904">Client</text>
				</g>
			</g>
		</g>
		<g>
			<desc>TCP/IP, fmc.bd.channel, 35fca2120064ffa801301999cd2a56b3</desc>
			<g>
				<desc>null, figure.plane, null</desc>
				<path d="M 118.25110864735012,14.682261640698208 A 2.5055432372505493 2.5055432372505457 0 0 0 120.75665188460067,17.187804877948754 L 120.75665188460067,17.187804877948754 A 2.5055432372505635 2.5055432372505457 0 0 0 123.26219512185124,14.682261640698208 L 123.26219512185124,14.682261640698208 A 2.5055432372505635 2.5055432372505724 0 0 0 120.75665188460067,12.176718403447635 L 120.75665188460067,12.176718403447635 A 2.5055432372505493 2.5055432372505724 0 0 0 118.25110864735012,14.682261640698208 z" fill="rgb(255,255,255)"/>
				<path d="M 118.25110864735012,14.682261640698208 A 2.5055432372505493 2.5055432372505457 0 0 0 120.75665188460067,17.187804877948754" stroke="rgb(127,127,127)" stroke-width="0.2505543237250485" fill="none" stroke-linecap="round"/>
				<path d="M 120.75665188460067,17.187804877948754 A 2.5055432372505635 2.5055432372505457 0 0 0 123.26219512185124,14.682261640698208" stroke="rgb(127,127,127)" stroke-width="0.2505543237250485" fill="none" stroke-linecap="round"/>
				<path d="M 123.26219512185124,14.682261640698208 A 2.5055432372505635 2.5055432372505724 0 0 0 120.75665188460067,12.176718403447635" stroke="rgb(127,127,127)" stroke-width="0.2505543237250485" fill="none" stroke-linecap="round"/>
				<path d="M 120.75665188460067,12.176718403447635 A 2.5055432372505493 2.5055432372505724 0 0 0 118.25110864735012,14.682261640698208" stroke="rgb(127,127,127)" stroke-width="0.2505543237250485" fill="none" stroke-linecap="round"/>
				<g>
					<desc>null, supplement, null</desc>
					<circle cx="121.77667552704149" cy="17.205611225489342" r="0.25055432372504854" fill="rgb(63,63,63)"/>
					<circle cx="121.02501255586633" cy="17.95727419666451" r="0.25055432372504854" fill="rgb(63,63,63)"/>
					<circle cx="120.27334958469116" cy="18.708937167839704" r="0.25055432372504854" fill="rgb(63,63,63)"/>
				</g>
				<g>
					<desc>null, supplement, null</desc>
					<circle cx="121.77667552704149" cy="13.662237998257382" r="0.25055432372504854" fill="rgb(63,63,63)"/>
					<circle cx="121.02501255586633" cy="14.413900969432564" r="0.25055432372504854" fill="rgb(63,63,63)"/>
					<circle cx="120.27334958469116" cy="15.165563940607733" r="0.25055432372504854" fill="rgb(63,63,63)"/>
				</g>
				<g>
					<desc>null, supplement, null</desc>
					<circle cx="118.23330229980957" cy="13.662237998257382" r="0.25055432372504854" fill="rgb(63,63,63)"/>
					<circle cx="117.48163932863439" cy="14.413900969432564" r="0.25055432372504854" fill="rgb(63,63,63)"/>
					<circle cx="116.72997635745922" cy="15.165563940607733" r="0.25055432372504854" fill="rgb(63,63,63)"/>
				</g>
			</g>
			<g>
				<desc>null, figure.plane, null</desc>
				<path d="M 115.24445676264945,17.688913525398863 A 2.5055432372505635 2.5055432372505884 0 0 0 117.74999999990001,20.19445676264945 L 117.74999999990001,20.19445676264945 A 2.5055432372505493 2.5055432372505884 0 0 0 120.25554323715056,17.688913525398863 L 120.25554323715056,17.688913525398863 A 2.5055432372505493 2.505543237250544 0 0 0 117.74999999990001,15.18337028814832 L 117.74999999990001,15.18337028814832 A 2.5055432372505635 2.505543237250544 0 0 0 115.24445676264945,17.688913525398863 z" fill="rgb(255,255,255)"/>
				<path d="M 115.24445676264945,17.688913525398863 A 2.5055432372505635 2.5055432372505884 0 0 0 117.74999999990001,20.19445676264945" stroke="rgb(0,0,0)" stroke-width="0.5011086474500971" fill="none" stroke-linecap="round"/>
				<path d="M 117.74999999990001,20.19445676264945 A 2.5055432372505493 2.5055432372505884 0 0 0 120.25554323715056,17.688913525398863" stroke="rgb(0,0,0)" stroke-width="0.5011086474500971" fill="none" stroke-linecap="round"/>
				<path d="M 120.25554323715056,17.688913525398863 A 2.5055432372505493 2.505543237250544 0 0 0 117.74999999990001,15.18337028814832" stroke="rgb(0,0,0)" stroke-width="0.5011086474500971" fill="none" stroke-linecap="round"/>
				<path d="M 117.74999999990001,15.18337028814832 A 2.5055432372505635 2.505543237250544 0 0 0 115.24445676264945,17.688913525398863" stroke="rgb(0,0,0)" stroke-width="0.5011086474500971" fill="none" stroke-linecap="round"/>
				<g>
					<desc>null, supplement, null</desc>
					<text x="117.74999999990003" y="25.30576496664059" textLength="13.048869179600954" lengthAdjust="spacingAndGlyphs" text-anchor="middle" font-family="Arial" font-size="4.028913525498912">TCP/IP</text>
				</g>
				<g>
					<desc>null, supplement, null</desc>
					<text x="116.74778269006558" y="10.923946784822366" textLength="1.603547671840349" lengthAdjust="spacingAndGlyphs" text-anchor="middle" font-family="Arial" font-size="2.2382852919438205">R</text>
					<path d="M 120.09860358198155,9.951482815864479 A 0.25495903101437206 0.2549590310143767 0 0 1 120.09860358198155,10.393084811429905 L 118.37596633936656,11.387649887169758 A 0.2676263803054216 0.2676263803054399 0 0 1 118.0089866631957,11.02451171715321 L 118.0089866631957,11.02451171715322 A 1.7361955253400017 1.7361955253400054 0 0 0 118.0089866631957,9.320055910141162 L 118.0089866631957,9.32005591014114 A 0.2676263803054409 0.2676263803053934 0 0 1 118.37596633936658,8.956917740124647 z"/>
				</g>
			</g>
			<g>
				<desc>null, figure.lineshape, null</desc>
				<line x1="100.30515521054299" y1="17.688913525398863" x2="115.15049889125255" y2="17.688913525398863" stroke="rgb(0,0,0)" stroke-width="0.2505543237250485" stroke-linecap="round"/>
			</g>
			<g>
				<desc>null, figure.lineshape, null</desc>
				<line x1="120.34950110854746" y1="17.688913525398863" x2="135.19484478925702" y2="17.688913525398863" stroke="rgb(0,0,0)" stroke-width="0.2505543237250485" stroke-linecap="round"/>
			</g>
		</g>
		<g>
			<desc>Data Producer, fmc.bd.agent, 35fe44b30064ffa8013006ec8bc17ddd</desc>
			<g>
				<desc>null, figure.plane, null</desc>
				<path d=" M 8.00720620832551,22.198891352449888 L 38.07372505533222,22.198891352449888 L 38.07372505533222,7.165631928946545 L 8.00720620832551,7.165631928946545 z" fill="rgb(255,255,255)"/>
				<line x1="8.00720620832551" y1="22.198891352449888" x2="38.07372505533222" y2="22.198891352449888" stroke="rgb(127,127,127)" stroke-width="0.2505543237250485" stroke-linecap="round"/>
				<line x1="38.07372505533222" y1="22.198891352449888" x2="38.07372505533222" y2="7.165631928946546" stroke="rgb(127,127,127)" stroke-width="0.2505543237250485" stroke-linecap="round"/>
				<line x1="38.07372505533222" y1="7.165631928946545" x2="8.00720620832551" y2="7.165631928946545" stroke="rgb(127,127,127)" stroke-width="0.2505543237250485" stroke-linecap="round"/>
				<line x1="8.00720620832551" y1="7.165631928946545" x2="8.00720620832551" y2="22.198891352449884" stroke="rgb(127,127,127)" stroke-width="0.2505543237250485" stroke-linecap="round"/>
				<g>
					<desc>null, supplement, null</desc>
					<circle cx="7.255543237150342" cy="22.950554323625052" r="0.25055432372504854" fill="rgb(63,63,63)"/>
					<circle cx="6.503880265975175" cy="23.70221729480022" r="0.25055432372504854" fill="rgb(63,63,63)"/>
					<circle cx="5.752217294800007" cy="24.453880265975375" r="0.25055432372504854" fill="rgb(63,63,63)"/>
				</g>
				<g>
					<desc>null, supplement, null</desc>
					<circle cx="37.322062084157054" cy="22.950554323625052" r="0.25055432372504854" fill="rgb(63,63,63)"/>
					<circle cx="36.57039911298189" cy="23.70221729480022" r="0.25055432372504854" fill="rgb(63,63,63)"/>
					<circle cx="35.81873614180672" cy="24.453880265975375" r="0.25055432372504854" fill="rgb(63,63,63)"/>
				</g>
				<g>
					<desc>null, supplement, null</desc>
					<circle cx="37.322062084157054" cy="7.917294900121684" r="0.25055432372504854" fill="rgb(63,63,63)"/>
					<circle cx="36.57039911298189" cy="8.668957871296852" r="0.25055432372504854" fill="rgb(63,63,63)"/>
					<circle cx="35.81873614180672" cy="9.420620842472019" r="0.25055432372504854" fill="rgb(63,63,63)"/>
				</g>
				<g>
					<desc>null, supplement, null</desc>
					<circle cx="7.255543237150342" cy="7.917294900121684" r="0.25055432372504854" fill="rgb(63,63,63)"/>
					<circle cx="6.503880265975175" cy="8.668957871296852" r="0.25055432372504854" fill="rgb(63,63,63)"/>
					<circle cx="5.752217294800007" cy="9.420620842472019" r="0.25055432372504854" fill="rgb(63,63,63)"/>
				</g>
			</g>
			<g>
				<desc>null, figure.plane, null</desc>
				<path d=" M 5.000554323624839,25.205543237150543 L 35.06707317063155,25.205543237150543 L 35.06707317063155,10.172283813647187 L 5.000554323624839,10.172283813647187 z" fill="rgb(255,255,255)"/>
				<line x1="5.000554323624839" y1="25.205543237150543" x2="35.06707317063155" y2="25.205543237150543" stroke="rgb(0,0,0)" stroke-width="0.5011086474500971" stroke-linecap="round"/>
				<line x1="35.06707317063155" y1="25.205543237150543" x2="35.06707317063155" y2="10.172283813647187" stroke="rgb(0,0,0)" stroke-width="0.5011086474500971" stroke-linecap="round"/>
				<line x1="35.06707317063155" y1="10.172283813647187" x2="5.00055432362484" y2="10.172283813647187" stroke="rgb(0,0,0)" stroke-width="0.5011086474500971" stroke-linecap="round"/>
				<line x1="5.000554323624839" y1="10.172283813647187" x2="5.000554323624839" y2="25.20554323715054" stroke="rgb(0,0,0)" stroke-width="0.5011086474500971" stroke-linecap="round"/>
				<g>
					<desc>null, supplement, null</desc>
					<text x="20.033813747128193" y="19.041906873514176" textLength="25.917339246119816" lengthAdjust="spacingAndGlyphs" text-anchor="middle" font-family="Arial" font-size="4.028913525498904">Data Producer</text>
				</g>
			</g>
		</g>
		<g>
			<desc>TCP/IP, fmc.bd.channel, 35fe94af0064ffa80130e02c8b0394a9</desc>
			<g>
				<desc>null, figure.plane, null</desc>
				<path d="M 53.10698447883558,14.682261640698208 A 2.5055432372505564 2.5055432372505457 0 0 0 55.612527716086134,17.187804877948754 L 55.612527716086134,17.187804877948754 A 2.5055432372505635 2.5055432372505457 0 0 0 58.1180709533367,14.682261640698208 L 58.1180709533367,14.682261640698208 A 2.5055432372505635 2.5055432372505724 0 0 0 55.612527716086134,12.176718403447635 L 55.612527716086134,12.176718403447635 A 2.5055432372505564 2.5055432372505724 0 0 0 53.10698447883558,14.682261640698208 z" fill="rgb(255,255,255)"/>
				<path d="M 53.10698447883558,14.682261640698208 A 2.5055432372505564 2.5055432372505457 0 0 0 55.612527716086134,17.187804877948754" stroke="rgb(127,127,127)" stroke-width="0.2505543237250485" fill="none" stroke-linecap="round"/>
				<path d="M 55.612527716086134,17.187804877948754 A 2.5055432372505635 2.5055432372505457 0 0 0 58.1180709533367,14.682261640698208" stroke="rgb(127,127,127)" stroke-width="0.2505543237250485" fill="none" stroke-linecap="round"/>
				<path d="M 58.1180709533367,14.682261640698208 A 2.5055432372505635 2.5055432372505724 0 0 0 55.612527716086134,12.176718403447635" stroke="rgb(127,127,127)" stroke-width="0.2505543237250485" fill="none" stroke-linecap="round"/>
				<path d="M 55.612527716086134,12.176718403447635 A 2.5055432372505564 2.5055432372505724 0 0 0 53.10698447883558,14.682261640698208" stroke="rgb(127,127,127)" stroke-width="0.2505543237250485" fill="none" stroke-linecap="round"/>
				<g>
					<desc>null, supplement, null</desc>
					<circle cx="56.632551358526946" cy="17.205611225489342" r="0.25055432372504854" fill="rgb(63,63,63)"/>
					<circle cx="55.88088838735178" cy="17.95727419666451" r="0.25055432372504854" fill="rgb(63,63,63)"/>
					<circle cx="55.12922541617661" cy="18.708937167839704" r="0.25055432372504854" fill="rgb(63,63,63)"/>
				</g>
				<g>
					<desc>null, supplement, null</desc>
					<circle cx="56.632551358526946" cy="13.662237998257382" r="0.25055432372504854" fill="rgb(63,63,63)"/>
					<circle cx="55.88088838735178" cy="14.413900969432564" r="0.25055432372504854" fill="rgb(63,63,63)"/>
					<circle cx="55.12922541617661" cy="15.165563940607733" r="0.25055432372504854" fill="rgb(63,63,63)"/>
				</g>
				<g>
					<desc>null, supplement, null</desc>
					<circle cx="53.089178131294986" cy="13.662237998257382" r="0.25055432372504854" fill="rgb(63,63,63)"/>
					<circle cx="52.33751516011982" cy="14.413900969432564" r="0.25055432372504854" fill="rgb(63,63,63)"/>
					<circle cx="51.585852188944656" cy="15.165563940607733" r="0.25055432372504854" fill="rgb(63,63,63)"/>
				</g>
			</g>
			<g>
				<desc>null, figure.plane, null</desc>
				<path d="M 50.100332594134905,17.688913525398863 A 2.5055432372505635 2.5055432372505884 0 0 0 52.60587583138547,20.19445676264945 L 52.60587583138547,20.19445676264945 A 2.5055432372505564 2.5055432372505884 0 0 0 55.111419068636025,17.688913525398863 L 55.111419068636025,17.688913525398863 A 2.5055432372505564 2.505543237250544 0 0 0 52.60587583138547,15.18337028814832 L 52.60587583138547,15.18337028814832 A 2.5055432372505635 2.505543237250544 0 0 0 50.100332594134905,17.688913525398863 z" fill="rgb(255,255,255)"/>
				<path d="M 50.100332594134905,17.688913525398863 A 2.5055432372505635 2.5055432372505884 0 0 0 52.60587583138547,20.19445676264945" stroke="rgb(0,0,0)" stroke-width="0.5011086474500971" fill="none" stroke-linecap="round"/>
				<path d="M 52.60587583138547,20.19445676264945 A 2.5055432372505564 2.5055432372505884 0 0 0 55.111419068636025,17.688913525398863" stroke="rgb(0,0,0)" stroke-width="0.5011086474500971" fill="none" stroke-linecap="round"/>
				<path d="M 55.111419068636025,17.688913525398863 A 2.5055432372505564 2.505543237250544 0 0 0 52.60587583138547,15.18337028814832" stroke="rgb(0,0,0)" stroke-width="0.5011086474500971" fill="none" stroke-linecap="round"/>
				<path d="M 52.60587583138547,15.18337028814832 A 2.5055432372505635 2.505543237250544 0 0 0 50.100332594134905,17.688913525398863" stroke="rgb(0,0,0)" stroke-width="0.5011086474500971" fill="none" stroke-linecap="round"/>
				<g>
					<desc>null, supplement, null</desc>
					<text x="52.60587583138546" y="25.30576496664059" textLength="13.048869179600954" lengthAdjust="spacingAndGlyphs" text-anchor="middle" font-family="Arial" font-size="4.028913525498912">TCP/IP</text>
				</g>
				<g>
					<desc>null, supplement, null</desc>
					<text x="51.60365852155104" y="10.923946784822366" textLength="1.603547671840349" lengthAdjust="spacingAndGlyphs" text-anchor="middle" font-family="Arial" font-size="2.2382852919438205">R</text>
					<path d="M 54.954479413467055,9.951482815864493 A 0.2549590310143527 0.25495903101435885 0 0 1 54.954479413467055,10.393084811429894 L 53.23184217085201,11.387649887169754 A 0.2676263803054312 0.2676263803054414 0 0 1 52.86486249468114,11.024511717153201 L 52.86486249468114,11.024511717153207 A 1.736195525339979 1.736195525339979 0 0 0 52.86486249468113,9.320055910141175 L 52.86486249468113,9.320055910141138 A 0.26762638030546554 0.2676263803053903 0 0 1 53.23184217085204,8.95691774012465 z"/>
				</g>
			</g>
			<g>
				<desc>null, figure.lineshape, null</desc>
				<line x1="35.16103104202845" y1="17.688913525398863" x2="50.00637472273801" y2="17.688913525398863" stroke="rgb(0,0,0)" stroke-width="0.2505543237250485" stroke-linecap="round"/>
			</g>
			<g>
				<desc>null, figure.lineshape, null</desc>
				<line x1="55.20537694003292" y1="17.688913525398863" x2="70.05072062074248" y2="17.688913525398863" stroke="rgb(0,0,0)" stroke-width="0.2505543237250485" stroke-linecap="round"/>
			</g>
		</g>
		<g>
			<desc>, fmc.cm.planecomment, 3677b2d00064ffa80130dc988a211c84</desc>
			<g>
				<desc>null, figure.plane, null</desc>
				<g>
					<desc>null, supplement, null</desc>
					<text x="174.1247228380376" y="36.58070953426808" textLength="28.74359201773843" lengthAdjust="spacingAndGlyphs" text-anchor="middle" font-family="Arial" font-size="4.0289135254989015">Energy Provider</text>
				</g>
			</g>
		</g>
		<g>
			<desc>, fmc.cm.planecomment, 367e74da0064ffa801305788483e4af7</desc>
			<g>
				<desc>null, figure.plane, null</desc>
				<g>
					<desc>null, supplement, null</desc>
					<text x="28.80321507750515" y="36.58070953426808" textLength="21.226962305986753" lengthAdjust="spacingAndGlyphs" text-anchor="middle" font-family="Arial" font-size="4.0289135254989015">Households</text>
				</g>
			</g>
		</g>
		<g>
			<desc>, fmc.cm.planecomment, 367f41490064ffa80130b81aa292c054</desc>
			<g>
				<desc>null, figure.plane, null</desc>
				<g>
					<desc>null, supplement, null</desc>
					<text x="85.17793791564273" y="34.32572062074258" textLength="40.95059866962316" lengthAdjust="spacingAndGlyphs" text-anchor="middle" font-family="Arial" font-size="4.0289135254989015">Regional Energy Asset</text>
					<text x="85.17793791564273" y="38.83569844779359" textLength="20.385099778270558" lengthAdjust="spacingAndGlyphs" text-anchor="middle" font-family="Arial" font-size="4.0289135254989015">Companies</text>
				</g>
			</g>
		</g>
		<g>
			<desc>In-Memory Database, fmc.bd.storage, 3c5d8c430064ffa80130f7063283442d</desc>
			<g>
				<desc>null, figure.plane, null</desc>
				<path d="M 200.43292682916845,17.688913525398863 A 7.516629711751676 7.51662971175168 0 0 0 207.94955654092013,25.205543237150543 L 222.9828159644235,25.205543237150543 A 7.516629711751676 7.51662971175168 0 0 0 230.49944567617518,17.688913525398863 L 230.49944567617518,17.688913525398863 A 7.516629711751676 7.516629711751676 0 0 0 222.9828159644235,10.172283813647187 L 207.94955654092013,10.172283813647187 A 7.516629711751676 7.516629711751676 0 0 0 200.43292682916845,17.688913525398863 z" fill="rgb(255,255,255)"/>
				<path d="M 200.43292682916845,17.688913525398863 A 7.516629711751676 7.51662971175168 0 0 0 207.94955654092013,25.205543237150543" stroke="rgb(0,0,0)" stroke-width="0.5011086474500971" fill="none" stroke-linecap="round"/>
				<line x1="207.94955654092013" y1="25.205543237150543" x2="222.9828159644235" y2="25.205543237150543" stroke="rgb(0,0,0)" stroke-width="0.5011086474500971" stroke-linecap="round"/>
				<path d="M 222.9828159644235,25.205543237150543 A 7.516629711751676 7.51662971175168 0 0 0 230.49944567617518,17.688913525398863" stroke="rgb(0,0,0)" stroke-width="0.5011086474500971" fill="none" stroke-linecap="round"/>
				<path d="M 230.49944567617518,17.688913525398863 A 7.516629711751676 7.516629711751676 0 0 0 222.9828159644235,10.172283813647187" stroke="rgb(0,0,0)" stroke-width="0.5011086474500971" fill="none" stroke-linecap="round"/>
				<line x1="222.9828159644235" y1="10.172283813647187" x2="207.94955654092013" y2="10.172283813647187" stroke="rgb(0,0,0)" stroke-width="0.5011086474500971" stroke-linecap="round"/>
				<path d="M 207.94955654092013,10.172283813647187 A 7.516629711751676 7.516629711751676 0 0 0 200.43292682916845,17.688913525398863" stroke="rgb(0,0,0)" stroke-width="0.5011086474500971" fill="none" stroke-linecap="round"/>
				<g>
					<desc>null, supplement, null</desc>
					<text x="215.46618625267183" y="16.78691795998867" textLength="19.182439024390302" lengthAdjust="spacingAndGlyphs" text-anchor="middle" font-family="Arial" font-size="4.028913525498904">In-Memory</text>
					<text x="215.46618625267183" y="21.29689578703968" textLength="17.19804878048786" lengthAdjust="spacingAndGlyphs" text-anchor="middle" font-family="Arial" font-size="4.028913525498904">Database</text>
				</g>
			</g>
		</g>
		<g>
			<desc>, fmc.bd.storageaccess, 3c5e369c0064ffa80130e7d4dfdbb2ca</desc>
			<g>
				<desc>null, figure.lineshape, null</desc>
				<line x1="165.44927937905751" y1="17.688913525398863" x2="199.10812084247223" y2="17.688913525398863" stroke="rgb(0,0,0)" stroke-width="0.2505543237250485" stroke-linecap="round"/>
				<path d="M 200.3152220877917,17.52331277706184 A 0.19121927326077606 0.1912192732607761 0 0 1 200.3152220877917,17.854514273735887 L 199.0232441558304,18.600438080540805 A 0.20071978522903203 0.20071978522911132 0 0 1 198.7480093987023,18.328084453028357 L 198.7480093987023,18.328084453028396 A 1.3021466440050589 1.3021466440050606 0 0 0 198.7480093987023,17.049742597769335 L 198.7480093987023,17.04974259776932 A 0.20071978522909548 0.20071978522906636 0 0 1 199.0232441558305,16.777388970256933 z"/>
			</g>
		</g>
	</g>
</svg>
