<?xml version="1.0" encoding="UTF-8"?>
<svg width="235.49999999980002mm" height="45.3999999998mm" viewBox="0.0 0.0 235.49999999980002 45.3999999998" xmlns="http://www.w3.org/2000/svg" xmlns:xlink="http://www.w3.org/1999/xlink" xmlns:ev="http://www.w3.org/2001/xml-events" version="1.1">
	<g>
		<desc>Data Simulator, fmc.bd, 35fa30a70064ffa80130fab797239b96</desc>
		<g>
			<desc>, fmc.cm.lineshapecomment, 367e14b20064ffa80130653923346daa</desc>
			<g>
				<desc>null, figure.lineshape, null</desc>
				<line x1="52.60587583138547" y1="5.311529933381108" x2="52.60587583138547" y2="8.789223946684885" stroke="rgb(191,191,191)" stroke-width="0.40088691796010173" stroke-linecap="round"/>
				<line x1="52.60587583138547" y1="10.528070953336773" x2="52.60587583138547" y2="14.005764966640548" stroke="rgb(191,191,191)" stroke-width="0.40088691796010173" stroke-linecap="round"/>
				<line x1="52.60587583138547" y1="15.744611973292436" x2="52.60587583138547" y2="19.22230598659621" stroke="rgb(191,191,191)" stroke-width="0.40088691796010173" stroke-linecap="round"/>
				<line x1="52.60587583138547" y1="20.9611529932481" x2="52.60587583138547" y2="24.438847006551875" stroke="rgb(191,191,191)" stroke-width="0.40088691796010173" stroke-linecap="round"/>
				<line x1="52.60587583138547" y1="26.177694013203762" x2="52.60587583138547" y2="29.655388026507538" stroke="rgb(191,191,191)" stroke-width="0.40088691796010173" stroke-linecap="round"/>
				<line x1="52.60587583138547" y1="31.394235033159426" x2="52.60587583138547" y2="34.8719290464632" stroke="rgb(191,191,191)" stroke-width="0.40088691796010173" stroke-linecap="round"/>
				<line x1="52.60587583138547" y1="36.610776053115096" x2="52.60587583138547" y2="40.08847006641887" stroke="rgb(191,191,191)" stroke-width="0.40088691796010173" stroke-linecap="round"/>
			</g>
		</g>
		<g>
			<desc>, fmc.cm.lineshapecomment, 367b295c0064ffa801308c8f6921d5a6</desc>
			<g>
				<desc>null, figure.lineshape, null</desc>
				<line x1="117.74999999990001" y1="5.311529933381108" x2="117.74999999990001" y2="8.789223946684885" stroke="rgb(191,191,191)" stroke-width="0.40088691796010173" stroke-linecap="round"/>
				<line x1="117.74999999990001" y1="10.528070953336773" x2="117.74999999990001" y2="14.005764966640548" stroke="rgb(191,191,191)" stroke-width="0.40088691796010173" stroke-linecap="round"/>
				<line x1="117.74999999990001" y1="15.744611973292436" x2="117.74999999990001" y2="19.22230598659621" stroke="rgb(191,191,191)" stroke-width="0.40088691796010173" stroke-linecap="round"/>
				<line x1="117.74999999990001" y1="20.9611529932481" x2="117.74999999990001" y2="24.438847006551875" stroke="rgb(191,191,191)" stroke-width="0.40088691796010173" stroke-linecap="round"/>
				<line x1="117.74999999990001" y1="26.177694013203762" x2="117.74999999990001" y2="29.655388026507538" stroke="rgb(191,191,191)" stroke-width="0.40088691796010173" stroke-linecap="round"/>
				<line x1="117.74999999990001" y1="31.394235033159426" x2="117.74999999990001" y2="34.8719290464632" stroke="rgb(191,191,191)" stroke-width="0.40088691796010173" stroke-linecap="round"/>
				<line x1="117.74999999990001" y1="36.610776053115096" x2="117.74999999990001" y2="40.08847006641887" stroke="rgb(191,191,191)" stroke-width="0.40088691796010173" stroke-linecap="round"/>
			</g>
		</g>
		<g>
			<desc>Concentrator, fmc.bd.agent, 35fa70320064ffa80130f231205cf442</desc>
			<g>
				<desc>null, figure.plane, null</desc>
				<path d=" M 73.15133037684005,22.198891352449902 L 103.21784922384677,22.198891352449902 L 103.21784922384677,7.1656319289465165 L 73.15133037684005,7.1656319289465165 z" fill="rgb(255,255,255)"/>
				<line x1="73.15133037684005" y1="22.198891352449902" x2="103.21784922384677" y2="22.198891352449902" stroke="rgb(127,127,127)" stroke-width="0.2505543237250686" stroke-linecap="round"/>
				<line x1="103.21784922384677" y1="22.198891352449902" x2="103.21784922384677" y2="7.165631928946517" stroke="rgb(127,127,127)" stroke-width="0.2505543237250686" stroke-linecap="round"/>
				<line x1="103.21784922384677" y1="7.1656319289465165" x2="73.15133037684005" y2="7.1656319289465165" stroke="rgb(127,127,127)" stroke-width="0.2505543237250686" stroke-linecap="round"/>
				<line x1="73.15133037684005" y1="7.1656319289465165" x2="73.15133037684005" y2="22.1988913524499" stroke="rgb(127,127,127)" stroke-width="0.2505543237250686" stroke-linecap="round"/>
				<g>
					<desc>null, supplement, null</desc>
					<circle cx="72.39966740566489" cy="22.950554323625052" r="0.25055432372504854" fill="rgb(63,63,63)"/>
					<circle cx="71.64800443448972" cy="23.70221729480022" r="0.25055432372504854" fill="rgb(63,63,63)"/>
					<circle cx="70.89634146331454" cy="24.45388026597539" r="0.25055432372504854" fill="rgb(63,63,63)"/>
				</g>
				<g>
					<desc>null, supplement, null</desc>
					<circle cx="102.46618625267159" cy="22.950554323625052" r="0.25055432372504854" fill="rgb(63,63,63)"/>
					<circle cx="101.71452328149643" cy="23.70221729480022" r="0.25055432372504854" fill="rgb(63,63,63)"/>
					<circle cx="100.96286031032126" cy="24.45388026597539" r="0.25055432372504854" fill="rgb(63,63,63)"/>
				</g>
				<g>
					<desc>null, supplement, null</desc>
					<circle cx="102.46618625267159" cy="7.917294900121684" r="0.25055432372504854" fill="rgb(63,63,63)"/>
					<circle cx="101.71452328149643" cy="8.668957871296866" r="0.25055432372504854" fill="rgb(63,63,63)"/>
					<circle cx="100.96286031032126" cy="9.420620842472033" r="0.25055432372504854" fill="rgb(63,63,63)"/>
				</g>
				<g>
					<desc>null, supplement, null</desc>
					<circle cx="72.39966740566489" cy="7.917294900121684" r="0.25055432372504854" fill="rgb(63,63,63)"/>
					<circle cx="71.64800443448972" cy="8.668957871296866" r="0.25055432372504854" fill="rgb(63,63,63)"/>
					<circle cx="70.89634146331454" cy="9.420620842472033" r="0.25055432372504854" fill="rgb(63,63,63)"/>
				</g>
			</g>
			<g>
				<desc>null, figure.plane, null</desc>
				<path d=" M 70.14467849213938,25.205543237150557 L 100.2111973391461,25.205543237150557 L 100.2111973391461,10.172283813647201 L 70.14467849213938,10.172283813647201 z" fill="rgb(255,255,255)"/>
				<line x1="70.14467849213938" y1="25.205543237150557" x2="100.2111973391461" y2="25.205543237150557" stroke="rgb(0,0,0)" stroke-width="0.5011086474500971" stroke-linecap="round"/>
				<line x1="100.2111973391461" y1="25.205543237150557" x2="100.2111973391461" y2="10.172283813647201" stroke="rgb(0,0,0)" stroke-width="0.5011086474500971" stroke-linecap="round"/>
				<line x1="100.2111973391461" y1="10.172283813647201" x2="70.14467849213938" y2="10.172283813647201" stroke="rgb(0,0,0)" stroke-width="0.5011086474500971" stroke-linecap="round"/>
				<line x1="70.14467849213938" y1="10.172283813647201" x2="70.14467849213938" y2="25.205543237150554" stroke="rgb(0,0,0)" stroke-width="0.5011086474500971" stroke-linecap="round"/>
				<g>
					<desc>null, supplement, null</desc>
					<text x="85.17793791564273" y="19.04190687351418" textLength="23.211352549889178" lengthAdjust="spacingAndGlyphs" text-anchor="middle" font-family="Arial" font-size="4.0289135254989">Concentrator</text>
				</g>
			</g>
		</g>
		<g>
			<desc>Database Client, fmc.bd.agent, 35fb2d740064ffa8013082ae4227cba7</desc>
			<g>
				<desc>null, figure.plane, null</desc>
				<path d=" M 138.2954545453546,22.198891352449902 L 168.36197339236134,22.198891352449902 L 168.36197339236134,7.1656319289465165 L 138.2954545453546,7.1656319289465165 z" fill="rgb(255,255,255)"/>
				<line x1="138.2954545453546" y1="22.198891352449902" x2="168.36197339236134" y2="22.198891352449902" stroke="rgb(127,127,127)" stroke-width="0.2505543237250686" stroke-linecap="round"/>
				<line x1="168.36197339236134" y1="22.198891352449902" x2="168.36197339236134" y2="7.165631928946517" stroke="rgb(127,127,127)" stroke-width="0.2505543237250686" stroke-linecap="round"/>
				<line x1="168.36197339236134" y1="7.1656319289465165" x2="138.2954545453546" y2="7.1656319289465165" stroke="rgb(127,127,127)" stroke-width="0.2505543237250686" stroke-linecap="round"/>
				<line x1="138.2954545453546" y1="7.1656319289465165" x2="138.2954545453546" y2="22.1988913524499" stroke="rgb(127,127,127)" stroke-width="0.2505543237250686" stroke-linecap="round"/>
				<g>
					<desc>null, supplement, null</desc>
					<circle cx="137.54379157417944" cy="22.950554323625052" r="0.25055432372504854" fill="rgb(63,63,63)"/>
					<circle cx="136.79212860300424" cy="23.70221729480022" r="0.25055432372504854" fill="rgb(63,63,63)"/>
					<circle cx="136.04046563182908" cy="24.45388026597539" r="0.25055432372504854" fill="rgb(63,63,63)"/>
				</g>
				<g>
					<desc>null, supplement, null</desc>
					<circle cx="167.61031042118614" cy="22.950554323625052" r="0.25055432372504854" fill="rgb(63,63,63)"/>
					<circle cx="166.85864745001098" cy="23.70221729480022" r="0.25055432372504854" fill="rgb(63,63,63)"/>
					<circle cx="166.1069844788358" cy="24.45388026597539" r="0.25055432372504854" fill="rgb(63,63,63)"/>
				</g>
				<g>
					<desc>null, supplement, null</desc>
					<circle cx="167.61031042118614" cy="7.917294900121684" r="0.25055432372504854" fill="rgb(63,63,63)"/>
					<circle cx="166.85864745001098" cy="8.668957871296866" r="0.25055432372504854" fill="rgb(63,63,63)"/>
					<circle cx="166.1069844788358" cy="9.420620842472033" r="0.25055432372504854" fill="rgb(63,63,63)"/>
				</g>
				<g>
					<desc>null, supplement, null</desc>
					<circle cx="137.54379157417944" cy="7.917294900121684" r="0.25055432372504854" fill="rgb(63,63,63)"/>
					<circle cx="136.79212860300424" cy="8.668957871296866" r="0.25055432372504854" fill="rgb(63,63,63)"/>
					<circle cx="136.04046563182908" cy="9.420620842472033" r="0.25055432372504854" fill="rgb(63,63,63)"/>
				</g>
			</g>
			<g>
				<desc>null, figure.plane, null</desc>
				<path d=" M 135.28880266065391,25.205543237150557 L 165.35532150766062,25.205543237150557 L 165.35532150766062,10.172283813647201 L 135.28880266065391,10.172283813647201 z" fill="rgb(255,255,255)"/>
				<line x1="135.28880266065391" y1="25.205543237150557" x2="165.35532150766062" y2="25.205543237150557" stroke="rgb(0,0,0)" stroke-width="0.5011086474500971" stroke-linecap="round"/>
				<line x1="165.35532150766062" y1="25.205543237150557" x2="165.35532150766062" y2="10.172283813647201" stroke="rgb(0,0,0)" stroke-width="0.5011086474500971" stroke-linecap="round"/>
				<line x1="165.35532150766062" y1="10.172283813647201" x2="135.28880266065391" y2="10.172283813647201" stroke="rgb(0,0,0)" stroke-width="0.5011086474500971" stroke-linecap="round"/>
				<line x1="135.28880266065391" y1="10.172283813647201" x2="135.28880266065391" y2="25.205543237150554" stroke="rgb(0,0,0)" stroke-width="0.5011086474500971" stroke-linecap="round"/>
				<g>
					<desc>null, supplement, null</desc>
					<text x="150.32206208415727" y="16.786917959988678" textLength="17.198048780487838" lengthAdjust="spacingAndGlyphs" text-anchor="middle" font-family="Arial" font-size="4.0289135254989">Database</text>
					<text x="150.32206208415727" y="21.296895787039684" textLength="10.282749445676293" lengthAdjust="spacingAndGlyphs" text-anchor="middle" font-family="Arial" font-size="4.0289135254989">Client</text>
				</g>
			</g>
		</g>
		<g>
			<desc>Database, fmc.bd.agent, 35fb7a390064ffa801308baf58224952</desc>
			<g>
				<desc>null, figure.plane, null</desc>
				<path d=" M 200.43292682916845,25.205543237150557 L 230.49944567617518,25.205543237150557 L 230.49944567617518,10.172283813647201 L 200.43292682916845,10.172283813647201 z" fill="rgb(255,255,255)"/>
				<line x1="200.43292682916845" y1="25.205543237150557" x2="230.49944567617518" y2="25.205543237150557" stroke="rgb(0,0,0)" stroke-width="0.5011086474500971" stroke-linecap="round"/>
				<line x1="230.49944567617518" y1="25.205543237150557" x2="230.49944567617518" y2="10.172283813647201" stroke="rgb(0,0,0)" stroke-width="0.5011086474500971" stroke-linecap="round"/>
				<line x1="230.49944567617518" y1="10.172283813647201" x2="200.43292682916845" y2="10.172283813647201" stroke="rgb(0,0,0)" stroke-width="0.5011086474500971" stroke-linecap="round"/>
				<line x1="200.43292682916845" y1="10.172283813647201" x2="200.43292682916845" y2="25.205543237150554" stroke="rgb(0,0,0)" stroke-width="0.5011086474500971" stroke-linecap="round"/>
				<g>
					<desc>null, supplement, null</desc>
					<text x="215.46618625267183" y="19.04190687351418" textLength="17.198048780487838" lengthAdjust="spacingAndGlyphs" text-anchor="middle" font-family="Arial" font-size="4.0289135254989">Database</text>
				</g>
			</g>
		</g>
		<g>
			<desc>TCP/IP, fmc.bd.channel, 35fca2120064ffa801301999cd2a56b3</desc>
			<g>
				<desc>null, figure.plane, null</desc>
				<path d="M 118.25110864735012,14.682261640698222 A 2.5055432372505493 2.5055432372505457 0 0 0 120.75665188460067,17.187804877948768 L 120.75665188460067,17.187804877948768 A 2.5055432372505635 2.5055432372505457 0 0 0 123.26219512185124,14.682261640698222 L 123.26219512185124,14.682261640698222 A 2.5055432372505635 2.5055432372505866 0 0 0 120.75665188460067,12.176718403447635 L 120.75665188460067,12.176718403447635 A 2.5055432372505493 2.5055432372505866 0 0 0 118.25110864735012,14.682261640698222 z" fill="rgb(255,255,255)"/>
				<path d="M 118.25110864735012,14.682261640698222 A 2.5055432372505493 2.5055432372505457 0 0 0 120.75665188460067,17.187804877948768" stroke="rgb(127,127,127)" stroke-width="0.2505543237250686" fill="none" stroke-linecap="round"/>
				<path d="M 120.75665188460067,17.187804877948768 A 2.5055432372505635 2.5055432372505457 0 0 0 123.26219512185124,14.682261640698222" stroke="rgb(127,127,127)" stroke-width="0.2505543237250686" fill="none" stroke-linecap="round"/>
				<path d="M 123.26219512185124,14.682261640698222 A 2.5055432372505635 2.5055432372505866 0 0 0 120.75665188460067,12.176718403447635" stroke="rgb(127,127,127)" stroke-width="0.2505543237250686" fill="none" stroke-linecap="round"/>
				<path d="M 120.75665188460067,12.176718403447635 A 2.5055432372505493 2.5055432372505866 0 0 0 118.25110864735012,14.682261640698222" stroke="rgb(127,127,127)" stroke-width="0.2505543237250686" fill="none" stroke-linecap="round"/>
				<g>
					<desc>null, supplement, null</desc>
					<circle cx="121.77667552704149" cy="17.205611225489356" r="0.25055432372504854" fill="rgb(63,63,63)"/>
					<circle cx="121.02501255586633" cy="17.957274196664525" r="0.25055432372504854" fill="rgb(63,63,63)"/>
					<circle cx="120.27334958469116" cy="18.708937167839675" r="0.25055432372504854" fill="rgb(63,63,63)"/>
				</g>
				<g>
					<desc>null, supplement, null</desc>
					<circle cx="121.77667552704149" cy="13.66223799825741" r="0.25055432372504854" fill="rgb(63,63,63)"/>
					<circle cx="121.02501255586633" cy="14.413900969432579" r="0.25055432372504854" fill="rgb(63,63,63)"/>
					<circle cx="120.27334958469116" cy="15.165563940607747" r="0.25055432372504854" fill="rgb(63,63,63)"/>
				</g>
				<g>
					<desc>null, supplement, null</desc>
					<circle cx="118.23330229980957" cy="13.66223799825741" r="0.25055432372504854" fill="rgb(63,63,63)"/>
					<circle cx="117.48163932863439" cy="14.413900969432579" r="0.25055432372504854" fill="rgb(63,63,63)"/>
					<circle cx="116.72997635745922" cy="15.165563940607747" r="0.25055432372504854" fill="rgb(63,63,63)"/>
				</g>
			</g>
			<g>
				<desc>null, figure.plane, null</desc>
				<path d="M 115.24445676264945,17.688913525398878 A 2.5055432372505635 2.5055432372505457 0 0 0 117.74999999990001,20.194456762649423 L 117.74999999990001,20.194456762649423 A 2.5055432372505493 2.5055432372505457 0 0 0 120.25554323715056,17.688913525398878 L 120.25554323715056,17.688913525398878 A 2.5055432372505493 2.505543237250544 0 0 0 117.74999999990001,15.183370288148334 L 117.74999999990001,15.183370288148334 A 2.5055432372505635 2.505543237250544 0 0 0 115.24445676264945,17.688913525398878 z" fill="rgb(255,255,255)"/>
				<path d="M 115.24445676264945,17.688913525398878 A 2.5055432372505635 2.5055432372505457 0 0 0 117.74999999990001,20.194456762649423" stroke="rgb(0,0,0)" stroke-width="0.5011086474500971" fill="none" stroke-linecap="round"/>
				<path d="M 117.74999999990001,20.194456762649423 A 2.5055432372505493 2.5055432372505457 0 0 0 120.25554323715056,17.688913525398878" stroke="rgb(0,0,0)" stroke-width="0.5011086474500971" fill="none" stroke-linecap="round"/>
				<path d="M 120.25554323715056,17.688913525398878 A 2.5055432372505493 2.505543237250544 0 0 0 117.74999999990001,15.183370288148334" stroke="rgb(0,0,0)" stroke-width="0.5011086474500971" fill="none" stroke-linecap="round"/>
				<path d="M 117.74999999990001,15.183370288148334 A 2.5055432372505635 2.505543237250544 0 0 0 115.24445676264945,17.688913525398878" stroke="rgb(0,0,0)" stroke-width="0.5011086474500971" fill="none" stroke-linecap="round"/>
				<g>
					<desc>null, supplement, null</desc>
					<text x="117.74999999990003" y="25.30576496664057" textLength="13.04886917960083" lengthAdjust="spacingAndGlyphs" text-anchor="middle" font-family="Arial" font-size="4.028913525498874">TCP/IP</text>
				</g>
				<g>
					<desc>null, supplement, null</desc>
					<text x="116.74778269006558" y="10.923946784822355" textLength="1.603547671840358" lengthAdjust="spacingAndGlyphs" text-anchor="middle" font-family="Arial" font-size="2.2382852919438334">R</text>
					<path d="M 120.09860358198155,9.951482815864479 A 0.25495903101437056 0.2549590310143782 0 0 1 120.09860358198155,10.393084811429908 L 118.37596633936653,11.387649887169749 A 0.26762638030538977 0.26762638030545527 0 0 1 118.00898666319571,11.024511717153175 L 118.0089866631957,11.024511717153207 A 1.7361955253399965 1.7361955253400174 0 0 0 118.0089866631957,9.32005591014115 L 118.0089866631957,9.320055910141145 A 0.2676263803054409 0.26762638030540664 0 0 1 118.37596633936658,8.956917740124638 z"/>
				</g>
			</g>
			<g>
				<desc>null, figure.lineshape, null</desc>
				<line x1="100.30515521054299" y1="17.688913525398878" x2="115.15049889125255" y2="17.688913525398878" stroke="rgb(0,0,0)" stroke-width="0.2505543237250686" stroke-linecap="round"/>
			</g>
			<g>
				<desc>null, figure.lineshape, null</desc>
				<line x1="120.34950110854746" y1="17.688913525398878" x2="135.19484478925702" y2="17.688913525398878" stroke="rgb(0,0,0)" stroke-width="0.2505543237250686" stroke-linecap="round"/>
			</g>
		</g>
		<g>
			<desc>ODBC, fmc.bd.channel, 35fd5fd70064ffa801307250b01f0e81</desc>
			<g>
				<desc>null, figure.plane, null</desc>
				<path d="M 183.39523281586466,14.682261640698222 A 2.5055432372505493 2.5055432372505457 0 0 0 185.9007760531152,17.187804877948768 L 185.9007760531152,17.187804877948768 A 2.5055432372505777 2.5055432372505457 0 0 0 188.4063192903658,14.682261640698222 L 188.4063192903658,14.682261640698222 A 2.5055432372505777 2.5055432372505866 0 0 0 185.9007760531152,12.176718403447635 L 185.9007760531152,12.176718403447635 A 2.5055432372505493 2.5055432372505866 0 0 0 183.39523281586466,14.682261640698222 z" fill="rgb(255,255,255)"/>
				<path d="M 183.39523281586466,14.682261640698222 A 2.5055432372505493 2.5055432372505457 0 0 0 185.9007760531152,17.187804877948768" stroke="rgb(127,127,127)" stroke-width="0.2505543237250686" fill="none" stroke-linecap="round"/>
				<path d="M 185.9007760531152,17.187804877948768 A 2.5055432372505777 2.5055432372505457 0 0 0 188.4063192903658,14.682261640698222" stroke="rgb(127,127,127)" stroke-width="0.2505543237250686" fill="none" stroke-linecap="round"/>
				<path d="M 188.4063192903658,14.682261640698222 A 2.5055432372505777 2.5055432372505866 0 0 0 185.9007760531152,12.176718403447635" stroke="rgb(127,127,127)" stroke-width="0.2505543237250686" fill="none" stroke-linecap="round"/>
				<path d="M 185.9007760531152,12.176718403447635 A 2.5055432372505493 2.5055432372505866 0 0 0 183.39523281586466,14.682261640698222" stroke="rgb(127,127,127)" stroke-width="0.2505543237250686" fill="none" stroke-linecap="round"/>
				<g>
					<desc>null, supplement, null</desc>
					<circle cx="186.92079969555604" cy="17.205611225489356" r="0.25055432372504854" fill="rgb(63,63,63)"/>
					<circle cx="186.16913672438088" cy="17.957274196664525" r="0.25055432372504854" fill="rgb(63,63,63)"/>
					<circle cx="185.41747375320568" cy="18.708937167839675" r="0.25055432372504854" fill="rgb(63,63,63)"/>
				</g>
				<g>
					<desc>null, supplement, null</desc>
					<circle cx="186.92079969555604" cy="13.66223799825741" r="0.25055432372504854" fill="rgb(63,63,63)"/>
					<circle cx="186.16913672438088" cy="14.413900969432579" r="0.25055432372504854" fill="rgb(63,63,63)"/>
					<circle cx="185.41747375320568" cy="15.165563940607747" r="0.25055432372504854" fill="rgb(63,63,63)"/>
				</g>
				<g>
					<desc>null, supplement, null</desc>
					<circle cx="183.37742646832413" cy="13.66223799825741" r="0.25055432372504854" fill="rgb(63,63,63)"/>
					<circle cx="182.62576349714894" cy="14.413900969432579" r="0.25055432372504854" fill="rgb(63,63,63)"/>
					<circle cx="181.87410052597377" cy="15.165563940607747" r="0.25055432372504854" fill="rgb(63,63,63)"/>
				</g>
			</g>
			<g>
				<desc>null, figure.plane, null</desc>
				<path d="M 180.388580931164,17.688913525398878 A 2.5055432372505777 2.5055432372505457 0 0 0 182.89412416841458,20.194456762649423 L 182.89412416841458,20.194456762649423 A 2.505543237250521 2.5055432372505457 0 0 0 185.3996674056651,17.688913525398878 L 185.3996674056651,17.688913525398878 A 2.505543237250521 2.505543237250544 0 0 0 182.89412416841458,15.183370288148334 L 182.89412416841458,15.183370288148334 A 2.5055432372505777 2.505543237250544 0 0 0 180.388580931164,17.688913525398878 z" fill="rgb(255,255,255)"/>
				<path d="M 180.388580931164,17.688913525398878 A 2.5055432372505777 2.5055432372505457 0 0 0 182.89412416841458,20.194456762649423" stroke="rgb(0,0,0)" stroke-width="0.5011086474500971" fill="none" stroke-linecap="round"/>
				<path d="M 182.89412416841458,20.194456762649423 A 2.505543237250521 2.5055432372505457 0 0 0 185.3996674056651,17.688913525398878" stroke="rgb(0,0,0)" stroke-width="0.5011086474500971" fill="none" stroke-linecap="round"/>
				<path d="M 185.3996674056651,17.688913525398878 A 2.505543237250521 2.505543237250544 0 0 0 182.89412416841458,15.183370288148334" stroke="rgb(0,0,0)" stroke-width="0.5011086474500971" fill="none" stroke-linecap="round"/>
				<path d="M 182.89412416841458,15.183370288148334 A 2.5055432372505777 2.505543237250544 0 0 0 180.388580931164,17.688913525398878" stroke="rgb(0,0,0)" stroke-width="0.5011086474500971" fill="none" stroke-linecap="round"/>
				<g>
					<desc>null, supplement, null</desc>
					<text x="182.89412416841455" y="25.30576496664057" textLength="11.605676274944516" lengthAdjust="spacingAndGlyphs" text-anchor="middle" font-family="Arial" font-size="4.028913525498874">ODBC</text>
				</g>
				<g>
					<desc>null, supplement, null</desc>
					<text x="181.89190685858014" y="10.923946784822355" textLength="1.603547671840358" lengthAdjust="spacingAndGlyphs" text-anchor="middle" font-family="Arial" font-size="2.2382852919438334">R</text>
					<path d="M 185.2427277504961,9.951482815864484 A 0.2549590310143659 0.25495903101437367 0 0 1 185.2427277504961,10.393084811429903 L 183.52009050788112,11.387649887169745 A 0.2676263803054233 0.2676263803054322 0 0 1 183.15311083171025,11.024511717153208 L 183.15311083171025,11.0245117171532 A 1.7361955253400903 1.7361955253400656 0 0 0 183.15311083171025,9.320055910141155 L 183.15311083171022,9.320055910141107 A 0.2676263803054824 0.2676263803053841 0 0 1 183.52009050788118,8.956917740124641 z"/>
				</g>
			</g>
			<g>
				<desc>null, figure.lineshape, null</desc>
				<line x1="165.44927937905751" y1="17.688913525398878" x2="180.2946230597671" y2="17.688913525398878" stroke="rgb(0,0,0)" stroke-width="0.2505543237250686" stroke-linecap="round"/>
			</g>
			<g>
				<desc>null, figure.lineshape, null</desc>
				<line x1="185.493625277062" y1="17.688913525398878" x2="200.33896895777156" y2="17.688913525398878" stroke="rgb(0,0,0)" stroke-width="0.2505543237250686" stroke-linecap="round"/>
			</g>
		</g>
		<g>
			<desc>Data Producer, fmc.bd.agent, 35fe44b30064ffa8013006ec8bc17ddd</desc>
			<g>
				<desc>null, figure.plane, null</desc>
				<path d=" M 8.00720620832551,22.198891352449902 L 38.07372505533222,22.198891352449902 L 38.07372505533222,7.1656319289465165 L 8.00720620832551,7.1656319289465165 z" fill="rgb(255,255,255)"/>
				<line x1="8.00720620832551" y1="22.198891352449902" x2="38.07372505533222" y2="22.198891352449902" stroke="rgb(127,127,127)" stroke-width="0.2505543237250686" stroke-linecap="round"/>
				<line x1="38.07372505533222" y1="22.198891352449902" x2="38.07372505533222" y2="7.165631928946517" stroke="rgb(127,127,127)" stroke-width="0.2505543237250686" stroke-linecap="round"/>
				<line x1="38.07372505533222" y1="7.1656319289465165" x2="8.00720620832551" y2="7.1656319289465165" stroke="rgb(127,127,127)" stroke-width="0.2505543237250686" stroke-linecap="round"/>
				<line x1="8.00720620832551" y1="7.1656319289465165" x2="8.00720620832551" y2="22.1988913524499" stroke="rgb(127,127,127)" stroke-width="0.2505543237250686" stroke-linecap="round"/>
				<g>
					<desc>null, supplement, null</desc>
					<circle cx="7.255543237150342" cy="22.950554323625052" r="0.25055432372504854" fill="rgb(63,63,63)"/>
					<circle cx="6.503880265975175" cy="23.70221729480022" r="0.25055432372504854" fill="rgb(63,63,63)"/>
					<circle cx="5.752217294800007" cy="24.45388026597539" r="0.25055432372504854" fill="rgb(63,63,63)"/>
				</g>
				<g>
					<desc>null, supplement, null</desc>
					<circle cx="37.322062084157054" cy="22.950554323625052" r="0.25055432372504854" fill="rgb(63,63,63)"/>
					<circle cx="36.57039911298189" cy="23.70221729480022" r="0.25055432372504854" fill="rgb(63,63,63)"/>
					<circle cx="35.81873614180672" cy="24.45388026597539" r="0.25055432372504854" fill="rgb(63,63,63)"/>
				</g>
				<g>
					<desc>null, supplement, null</desc>
					<circle cx="37.322062084157054" cy="7.917294900121684" r="0.25055432372504854" fill="rgb(63,63,63)"/>
					<circle cx="36.57039911298189" cy="8.668957871296866" r="0.25055432372504854" fill="rgb(63,63,63)"/>
					<circle cx="35.81873614180672" cy="9.420620842472033" r="0.25055432372504854" fill="rgb(63,63,63)"/>
				</g>
				<g>
					<desc>null, supplement, null</desc>
					<circle cx="7.255543237150342" cy="7.917294900121684" r="0.25055432372504854" fill="rgb(63,63,63)"/>
					<circle cx="6.503880265975175" cy="8.668957871296866" r="0.25055432372504854" fill="rgb(63,63,63)"/>
					<circle cx="5.752217294800007" cy="9.420620842472033" r="0.25055432372504854" fill="rgb(63,63,63)"/>
				</g>
			</g>
			<g>
				<desc>null, figure.plane, null</desc>
				<path d=" M 5.000554323624839,25.205543237150557 L 35.06707317063155,25.205543237150557 L 35.06707317063155,10.172283813647201 L 5.000554323624839,10.172283813647201 z" fill="rgb(255,255,255)"/>
				<line x1="5.000554323624839" y1="25.205543237150557" x2="35.06707317063155" y2="25.205543237150557" stroke="rgb(0,0,0)" stroke-width="0.5011086474500971" stroke-linecap="round"/>
				<line x1="35.06707317063155" y1="25.205543237150557" x2="35.06707317063155" y2="10.172283813647201" stroke="rgb(0,0,0)" stroke-width="0.5011086474500971" stroke-linecap="round"/>
				<line x1="35.06707317063155" y1="10.172283813647201" x2="5.00055432362484" y2="10.172283813647201" stroke="rgb(0,0,0)" stroke-width="0.5011086474500971" stroke-linecap="round"/>
				<line x1="5.000554323624839" y1="10.172283813647201" x2="5.000554323624839" y2="25.205543237150554" stroke="rgb(0,0,0)" stroke-width="0.5011086474500971" stroke-linecap="round"/>
				<g>
					<desc>null, supplement, null</desc>
					<text x="20.033813747128193" y="19.04190687351418" textLength="25.917339246119784" lengthAdjust="spacingAndGlyphs" text-anchor="middle" font-family="Arial" font-size="4.0289135254989">Data Producer</text>
				</g>
			</g>
		</g>
		<g>
			<desc>TCP/IP, fmc.bd.channel, 35fe94af0064ffa80130e02c8b0394a9</desc>
			<g>
				<desc>null, figure.plane, null</desc>
				<path d="M 53.10698447883558,14.682261640698222 A 2.5055432372505564 2.5055432372505457 0 0 0 55.612527716086134,17.187804877948768 L 55.612527716086134,17.187804877948768 A 2.5055432372505635 2.5055432372505457 0 0 0 58.1180709533367,14.682261640698222 L 58.1180709533367,14.682261640698222 A 2.5055432372505635 2.5055432372505866 0 0 0 55.612527716086134,12.176718403447635 L 55.612527716086134,12.176718403447635 A 2.5055432372505564 2.5055432372505866 0 0 0 53.10698447883558,14.682261640698222 z" fill="rgb(255,255,255)"/>
				<path d="M 53.10698447883558,14.682261640698222 A 2.5055432372505564 2.5055432372505457 0 0 0 55.612527716086134,17.187804877948768" stroke="rgb(127,127,127)" stroke-width="0.2505543237250686" fill="none" stroke-linecap="round"/>
				<path d="M 55.612527716086134,17.187804877948768 A 2.5055432372505635 2.5055432372505457 0 0 0 58.1180709533367,14.682261640698222" stroke="rgb(127,127,127)" stroke-width="0.2505543237250686" fill="none" stroke-linecap="round"/>
				<path d="M 58.1180709533367,14.682261640698222 A 2.5055432372505635 2.5055432372505866 0 0 0 55.612527716086134,12.176718403447635" stroke="rgb(127,127,127)" stroke-width="0.2505543237250686" fill="none" stroke-linecap="round"/>
				<path d="M 55.612527716086134,12.176718403447635 A 2.5055432372505564 2.5055432372505866 0 0 0 53.10698447883558,14.682261640698222" stroke="rgb(127,127,127)" stroke-width="0.2505543237250686" fill="none" stroke-linecap="round"/>
				<g>
					<desc>null, supplement, null</desc>
					<circle cx="56.632551358526946" cy="17.205611225489356" r="0.25055432372504854" fill="rgb(63,63,63)"/>
					<circle cx="55.88088838735178" cy="17.957274196664525" r="0.25055432372504854" fill="rgb(63,63,63)"/>
					<circle cx="55.12922541617661" cy="18.708937167839675" r="0.25055432372504854" fill="rgb(63,63,63)"/>
				</g>
				<g>
					<desc>null, supplement, null</desc>
					<circle cx="56.632551358526946" cy="13.66223799825741" r="0.25055432372504854" fill="rgb(63,63,63)"/>
					<circle cx="55.88088838735178" cy="14.413900969432579" r="0.25055432372504854" fill="rgb(63,63,63)"/>
					<circle cx="55.12922541617661" cy="15.165563940607747" r="0.25055432372504854" fill="rgb(63,63,63)"/>
				</g>
				<g>
					<desc>null, supplement, null</desc>
					<circle cx="53.089178131294986" cy="13.66223799825741" r="0.25055432372504854" fill="rgb(63,63,63)"/>
					<circle cx="52.33751516011982" cy="14.413900969432579" r="0.25055432372504854" fill="rgb(63,63,63)"/>
					<circle cx="51.585852188944656" cy="15.165563940607747" r="0.25055432372504854" fill="rgb(63,63,63)"/>
				</g>
			</g>
			<g>
				<desc>null, figure.plane, null</desc>
				<path d="M 50.100332594134905,17.688913525398878 A 2.5055432372505635 2.5055432372505457 0 0 0 52.60587583138547,20.194456762649423 L 52.60587583138547,20.194456762649423 A 2.5055432372505564 2.5055432372505457 0 0 0 55.111419068636025,17.688913525398878 L 55.111419068636025,17.688913525398878 A 2.5055432372505564 2.505543237250544 0 0 0 52.60587583138547,15.183370288148334 L 52.60587583138547,15.183370288148334 A 2.5055432372505635 2.505543237250544 0 0 0 50.100332594134905,17.688913525398878 z" fill="rgb(255,255,255)"/>
				<path d="M 50.100332594134905,17.688913525398878 A 2.5055432372505635 2.5055432372505457 0 0 0 52.60587583138547,20.194456762649423" stroke="rgb(0,0,0)" stroke-width="0.5011086474500971" fill="none" stroke-linecap="round"/>
				<path d="M 52.60587583138547,20.194456762649423 A 2.5055432372505564 2.5055432372505457 0 0 0 55.111419068636025,17.688913525398878" stroke="rgb(0,0,0)" stroke-width="0.5011086474500971" fill="none" stroke-linecap="round"/>
				<path d="M 55.111419068636025,17.688913525398878 A 2.5055432372505564 2.505543237250544 0 0 0 52.60587583138547,15.183370288148334" stroke="rgb(0,0,0)" stroke-width="0.5011086474500971" fill="none" stroke-linecap="round"/>
				<path d="M 52.60587583138547,15.183370288148334 A 2.5055432372505635 2.505543237250544 0 0 0 50.100332594134905,17.688913525398878" stroke="rgb(0,0,0)" stroke-width="0.5011086474500971" fill="none" stroke-linecap="round"/>
				<g>
					<desc>null, supplement, null</desc>
					<text x="52.60587583138546" y="25.30576496664057" textLength="13.04886917960083" lengthAdjust="spacingAndGlyphs" text-anchor="middle" font-family="Arial" font-size="4.028913525498874">TCP/IP</text>
				</g>
				<g>
					<desc>null, supplement, null</desc>
					<text x="51.60365852155104" y="10.923946784822355" textLength="1.603547671840358" lengthAdjust="spacingAndGlyphs" text-anchor="middle" font-family="Arial" font-size="2.2382852919438334">R</text>
					<path d="M 54.95447941346705,9.951482815864471 A 0.25495903101433987 0.2549590310143716 0 0 1 54.95447941346705,10.393084811429894 L 53.231842170852,11.387649887169745 A 0.26762638030542424 0.26762638030544605 0 0 1 52.86486249468114,11.024511717153183 L 52.86486249468112,11.024511717153194 A 1.7361955253399468 1.7361955253399681 0 0 0 52.86486249468113,9.320055910141162 L 52.86486249468113,9.320055910141138 A 0.26762638030547176 0.2676263803053984 0 0 1 53.231842170852055,8.956917740124643 z"/>
				</g>
			</g>
			<g>
				<desc>null, figure.lineshape, null</desc>
				<line x1="35.16103104202845" y1="17.688913525398878" x2="50.00637472273801" y2="17.688913525398878" stroke="rgb(0,0,0)" stroke-width="0.2505543237250686" stroke-linecap="round"/>
			</g>
			<g>
				<desc>null, figure.lineshape, null</desc>
				<line x1="55.20537694003292" y1="17.688913525398878" x2="70.05072062074248" y2="17.688913525398878" stroke="rgb(0,0,0)" stroke-width="0.2505543237250686" stroke-linecap="round"/>
			</g>
		</g>
		<g>
			<desc>, fmc.cm.planecomment, 3677b2d00064ffa80130dc988a211c84</desc>
			<g>
				<desc>null, figure.plane, null</desc>
				<g>
					<desc>null, supplement, null</desc>
					<text x="174.1247228380376" y="36.580709534268095" textLength="28.74359201773843" lengthAdjust="spacingAndGlyphs" text-anchor="middle" font-family="Arial" font-size="4.0289135254989015">Energy Provider</text>
				</g>
			</g>
		</g>
		<g>
			<desc>, fmc.cm.planecomment, 367e74da0064ffa801305788483e4af7</desc>
			<g>
				<desc>null, figure.plane, null</desc>
				<g>
					<desc>null, supplement, null</desc>
					<text x="28.80321507750515" y="36.580709534268095" textLength="21.226962305986753" lengthAdjust="spacingAndGlyphs" text-anchor="middle" font-family="Arial" font-size="4.0289135254989015">Households</text>
				</g>
			</g>
		</g>
		<g>
			<desc>, fmc.cm.planecomment, 367f41490064ffa80130b81aa292c054</desc>
			<g>
				<desc>null, figure.plane, null</desc>
				<g>
					<desc>null, supplement, null</desc>
					<text x="85.17793791564273" y="34.325720620742594" textLength="40.95059866962316" lengthAdjust="spacingAndGlyphs" text-anchor="middle" font-family="Arial" font-size="4.0289135254989015">Regional Energy Asset</text>
					<text x="85.17793791564273" y="38.835698447793604" textLength="20.385099778270558" lengthAdjust="spacingAndGlyphs" text-anchor="middle" font-family="Arial" font-size="4.0289135254989015">Companies</text>
				</g>
			</g>
		</g>
	</g>
</svg>
